G04 EAGLE Gerber RS-274X export*
G75*
%MOMM*%
%FSLAX34Y34*%
%LPD*%
%INSilkscreen Top*%
%IPPOS*%
%AMOC8*
5,1,8,0,0,1.08239X$1,22.5*%
G01*
%ADD10C,0.254000*%
%ADD11C,0.050800*%
%ADD12C,0.152400*%
%ADD13R,0.381000X0.508000*%
%ADD14C,0.000000*%
%ADD15C,0.304800*%


D10*
X329689Y125302D02*
X507489Y125302D01*
X329689Y125302D02*
X329689Y17352D01*
X507489Y17352D01*
D11*
X477606Y96850D02*
X477606Y98714D01*
X477606Y96850D02*
X478538Y95918D01*
X482267Y95918D01*
X483199Y96850D01*
X483199Y98714D01*
X482267Y99647D01*
X478538Y99647D01*
X477606Y98714D01*
X479470Y101531D02*
X482267Y101531D01*
X483199Y102463D01*
X483199Y105260D01*
X479470Y105260D01*
X478538Y108076D02*
X482267Y108076D01*
X483199Y109008D01*
X479470Y109008D02*
X479470Y107144D01*
X480402Y110886D02*
X480402Y114615D01*
X480398Y41679D02*
X480398Y39815D01*
X481330Y38882D01*
X485059Y38882D01*
X485991Y39815D01*
X485991Y41679D01*
X485059Y42611D01*
X481330Y42611D01*
X480398Y41679D01*
X482262Y44496D02*
X485059Y44496D01*
X485991Y45428D01*
X485991Y48224D01*
X482262Y48224D01*
X481330Y51041D02*
X485059Y51041D01*
X485991Y51973D01*
X482262Y51973D02*
X482262Y50109D01*
X483194Y53851D02*
X483194Y57579D01*
X481330Y55715D02*
X485059Y55715D01*
X361272Y102560D02*
X361272Y104425D01*
X361272Y103493D02*
X355679Y103493D01*
X355679Y104425D02*
X355679Y102560D01*
X357543Y106302D02*
X361272Y106302D01*
X357543Y106302D02*
X357543Y109099D01*
X358475Y110031D01*
X361272Y110031D01*
X358475Y111916D02*
X358475Y115644D01*
X364415Y37874D02*
X364415Y36010D01*
X364415Y36942D02*
X358822Y36942D01*
X358822Y36010D02*
X358822Y37874D01*
X360687Y39752D02*
X364415Y39752D01*
X360687Y39752D02*
X360687Y42548D01*
X361619Y43480D01*
X364415Y43480D01*
X361619Y45365D02*
X361619Y49093D01*
X359754Y47229D02*
X363483Y47229D01*
D10*
X507489Y17352D02*
X507489Y125302D01*
D11*
X516249Y43471D02*
X518114Y41607D01*
X516249Y43471D02*
X521842Y43471D01*
X521842Y41607D02*
X521842Y45336D01*
X521842Y47220D02*
X521842Y50949D01*
X518114Y50949D02*
X521842Y47220D01*
X518114Y50949D02*
X517181Y50949D01*
X516249Y50016D01*
X516249Y48152D01*
X517181Y47220D01*
X516249Y52833D02*
X519978Y52833D01*
X521842Y54697D01*
X519978Y56562D01*
X516249Y56562D01*
X519046Y58446D02*
X519046Y62175D01*
X520910Y64992D02*
X517181Y64992D01*
X520910Y64992D02*
X521842Y65924D01*
X518114Y65924D02*
X518114Y64059D01*
X521842Y68734D02*
X521842Y70598D01*
X520910Y71530D01*
X519046Y71530D01*
X518114Y70598D01*
X518114Y68734D01*
X519046Y67801D01*
X520910Y67801D01*
X521842Y68734D01*
X519046Y73415D02*
X519046Y77143D01*
X516249Y79028D02*
X516249Y82756D01*
X516249Y79028D02*
X519046Y79028D01*
X518114Y80892D01*
X518114Y81824D01*
X519046Y82756D01*
X520910Y82756D01*
X521842Y81824D01*
X521842Y79960D01*
X520910Y79028D01*
X519978Y84641D02*
X516249Y84641D01*
X519978Y84641D02*
X521842Y86505D01*
X519978Y88369D01*
X516249Y88369D01*
X11133Y147780D02*
X8336Y147780D01*
X11133Y147780D02*
X12065Y148712D01*
X11133Y149645D01*
X9268Y149645D01*
X8336Y150577D01*
X9268Y151509D01*
X12065Y151509D01*
X14882Y147780D02*
X16746Y147780D01*
X14882Y147780D02*
X13949Y148712D01*
X13949Y150577D01*
X14882Y151509D01*
X16746Y151509D01*
X17678Y150577D01*
X17678Y149645D01*
X13949Y149645D01*
X19562Y147780D02*
X19562Y151509D01*
X19562Y149645D02*
X21427Y151509D01*
X22359Y151509D01*
X24240Y151509D02*
X25172Y151509D01*
X25172Y147780D01*
X24240Y147780D02*
X26104Y147780D01*
X25172Y153373D02*
X25172Y154305D01*
X28914Y151509D02*
X30779Y151509D01*
X31711Y150577D01*
X31711Y147780D01*
X28914Y147780D01*
X27982Y148712D01*
X28914Y149645D01*
X31711Y149645D01*
X33595Y153373D02*
X34527Y153373D01*
X34527Y147780D01*
X33595Y147780D02*
X35459Y147780D01*
X37337Y150577D02*
X41066Y150577D01*
X43883Y147780D02*
X45747Y147780D01*
X46679Y148712D01*
X46679Y150577D01*
X45747Y151509D01*
X43883Y151509D01*
X42950Y150577D01*
X42950Y148712D01*
X43883Y147780D01*
X48563Y148712D02*
X48563Y151509D01*
X48563Y148712D02*
X49496Y147780D01*
X52292Y147780D01*
X52292Y151509D01*
X55109Y152441D02*
X55109Y148712D01*
X56041Y147780D01*
X56041Y151509D02*
X54177Y151509D01*
X497254Y278254D02*
X497254Y281983D01*
X499118Y281983D02*
X497254Y280118D01*
X499118Y281983D02*
X500050Y281983D01*
X502864Y278254D02*
X504728Y278254D01*
X502864Y278254D02*
X501932Y279186D01*
X501932Y281050D01*
X502864Y281983D01*
X504728Y281983D01*
X505660Y281050D01*
X505660Y280118D01*
X501932Y280118D01*
X507545Y278254D02*
X510341Y278254D01*
X511273Y279186D01*
X510341Y280118D01*
X508477Y280118D01*
X507545Y281050D01*
X508477Y281983D01*
X511273Y281983D01*
X514090Y278254D02*
X515954Y278254D01*
X514090Y278254D02*
X513158Y279186D01*
X513158Y281050D01*
X514090Y281983D01*
X515954Y281983D01*
X516886Y281050D01*
X516886Y280118D01*
X513158Y280118D01*
X519703Y279186D02*
X519703Y282915D01*
X519703Y279186D02*
X520635Y278254D01*
X520635Y281983D02*
X518771Y281983D01*
X476050Y278254D02*
X473254Y278254D01*
X476050Y278254D02*
X476983Y279186D01*
X476050Y280118D01*
X474186Y280118D01*
X473254Y281050D01*
X474186Y281983D01*
X476983Y281983D01*
X479799Y281983D02*
X482596Y281983D01*
X479799Y281983D02*
X478867Y281050D01*
X478867Y279186D01*
X479799Y278254D01*
X482596Y278254D01*
X484480Y278254D02*
X484480Y283847D01*
X484480Y280118D02*
X487277Y278254D01*
X484480Y280118D02*
X487277Y281983D01*
X447254Y281983D02*
X447254Y278254D01*
X447254Y281983D02*
X448186Y281983D01*
X449118Y281050D01*
X449118Y278254D01*
X449118Y281050D02*
X450050Y281983D01*
X450983Y281050D01*
X450983Y278254D01*
X452867Y281983D02*
X453799Y281983D01*
X453799Y278254D01*
X452867Y278254D02*
X454731Y278254D01*
X453799Y283847D02*
X453799Y284779D01*
X456609Y278254D02*
X459406Y278254D01*
X460338Y279186D01*
X459406Y280118D01*
X457541Y280118D01*
X456609Y281050D01*
X457541Y281983D01*
X460338Y281983D01*
X463154Y278254D02*
X465019Y278254D01*
X465951Y279186D01*
X465951Y281050D01*
X465019Y281983D01*
X463154Y281983D01*
X462222Y281050D01*
X462222Y279186D01*
X463154Y278254D01*
X420254Y278254D02*
X420254Y281983D01*
X421186Y281983D01*
X422118Y281050D01*
X422118Y278254D01*
X422118Y281050D02*
X423050Y281983D01*
X423983Y281050D01*
X423983Y278254D01*
X426799Y278254D02*
X428663Y278254D01*
X429596Y279186D01*
X429596Y281050D01*
X428663Y281983D01*
X426799Y281983D01*
X425867Y281050D01*
X425867Y279186D01*
X426799Y278254D01*
X431480Y278254D02*
X434277Y278254D01*
X435209Y279186D01*
X434277Y280118D01*
X432412Y280118D01*
X431480Y281050D01*
X432412Y281983D01*
X435209Y281983D01*
X437093Y281983D02*
X438025Y281983D01*
X438025Y278254D01*
X437093Y278254D02*
X438958Y278254D01*
X438025Y283847D02*
X438025Y284779D01*
X28050Y240254D02*
X26186Y240254D01*
X25254Y241186D01*
X25254Y243050D01*
X26186Y243983D01*
X28050Y243983D01*
X28983Y243050D01*
X28983Y242118D01*
X25254Y242118D01*
X30867Y243983D02*
X34596Y240254D01*
X30867Y240254D02*
X34596Y243983D01*
X37412Y244915D02*
X37412Y241186D01*
X38344Y240254D01*
X38344Y243983D02*
X36480Y243983D01*
X40222Y243050D02*
X43951Y243050D01*
X47700Y238390D02*
X48632Y238390D01*
X49564Y239322D01*
X49564Y243983D01*
X46767Y243983D01*
X45835Y243050D01*
X45835Y241186D01*
X46767Y240254D01*
X49564Y240254D01*
X51448Y240254D02*
X51448Y243983D01*
X51448Y242118D02*
X53313Y243983D01*
X54245Y243983D01*
X57058Y240254D02*
X58922Y240254D01*
X59855Y241186D01*
X59855Y243050D01*
X58922Y243983D01*
X57058Y243983D01*
X56126Y243050D01*
X56126Y241186D01*
X57058Y240254D01*
X61739Y241186D02*
X61739Y243983D01*
X61739Y241186D02*
X62671Y240254D01*
X65468Y240254D01*
X65468Y243983D01*
X67352Y243983D02*
X67352Y240254D01*
X67352Y243983D02*
X70149Y243983D01*
X71081Y243050D01*
X71081Y240254D01*
X76694Y240254D02*
X76694Y245847D01*
X76694Y240254D02*
X73897Y240254D01*
X72965Y241186D01*
X72965Y243050D01*
X73897Y243983D01*
X76694Y243983D01*
X26186Y183983D02*
X25254Y183983D01*
X26186Y183983D02*
X26186Y180254D01*
X25254Y180254D02*
X27118Y180254D01*
X26186Y185847D02*
X26186Y186779D01*
X28996Y183983D02*
X28996Y180254D01*
X28996Y183983D02*
X31792Y183983D01*
X32725Y183050D01*
X32725Y180254D01*
X34609Y183050D02*
X38338Y183050D01*
X40222Y183983D02*
X40222Y180254D01*
X40222Y182118D02*
X42087Y183983D01*
X43019Y183983D01*
X45832Y180254D02*
X47696Y180254D01*
X45832Y180254D02*
X44900Y181186D01*
X44900Y183050D01*
X45832Y183983D01*
X47696Y183983D01*
X48628Y183050D01*
X48628Y182118D01*
X44900Y182118D01*
X50513Y180254D02*
X53309Y180254D01*
X54241Y181186D01*
X53309Y182118D01*
X51445Y182118D01*
X50513Y183050D01*
X51445Y183983D01*
X54241Y183983D01*
X57058Y180254D02*
X58922Y180254D01*
X57058Y180254D02*
X56126Y181186D01*
X56126Y183050D01*
X57058Y183983D01*
X58922Y183983D01*
X59855Y183050D01*
X59855Y182118D01*
X56126Y182118D01*
X62671Y181186D02*
X62671Y184915D01*
X62671Y181186D02*
X63603Y180254D01*
X63603Y183983D02*
X61739Y183983D01*
X19237Y90647D02*
X18305Y90647D01*
X19237Y90647D02*
X19237Y86919D01*
X18305Y86919D02*
X20169Y86919D01*
X19237Y92512D02*
X19237Y93444D01*
X22047Y90647D02*
X22047Y86919D01*
X22047Y90647D02*
X24843Y90647D01*
X25775Y89715D01*
X25775Y86919D01*
X27660Y89715D02*
X31388Y89715D01*
X33273Y92512D02*
X37001Y92512D01*
X33273Y92512D02*
X33273Y89715D01*
X35137Y90647D01*
X36069Y90647D01*
X37001Y89715D01*
X37001Y87851D01*
X36069Y86919D01*
X34205Y86919D01*
X33273Y87851D01*
X38886Y87851D02*
X38886Y86919D01*
X38886Y87851D02*
X39818Y87851D01*
X39818Y86919D01*
X38886Y86919D01*
X41692Y90647D02*
X43557Y92512D01*
X43557Y86919D01*
X45421Y86919D02*
X41692Y86919D01*
X47306Y90647D02*
X49170Y86919D01*
X51034Y90647D01*
D10*
X313261Y127730D02*
X325961Y127730D01*
X325961Y140430D02*
X300561Y127730D01*
X300561Y140430D01*
X300561Y153130D02*
X325961Y140430D01*
X325961Y127730D01*
X300561Y140430D02*
X285321Y140430D01*
X300561Y140430D02*
X300561Y153130D01*
X325961Y140430D02*
X341201Y140430D01*
X325961Y140430D02*
X325961Y153130D01*
X338661Y153130D01*
D11*
X305443Y160782D02*
X301715Y160782D01*
X305443Y160782D02*
X301715Y157054D01*
X305443Y157054D01*
X308260Y157054D02*
X310124Y157054D01*
X308260Y157054D02*
X307328Y157986D01*
X307328Y159850D01*
X308260Y160782D01*
X310124Y160782D01*
X311056Y159850D01*
X311056Y158918D01*
X307328Y158918D01*
X312941Y157054D02*
X312941Y160782D01*
X315737Y160782D01*
X316669Y159850D01*
X316669Y157054D01*
X319486Y157054D02*
X321350Y157054D01*
X319486Y157054D02*
X318554Y157986D01*
X318554Y159850D01*
X319486Y160782D01*
X321350Y160782D01*
X322283Y159850D01*
X322283Y158918D01*
X318554Y158918D01*
X324167Y157054D02*
X324167Y160782D01*
X324167Y158918D02*
X326031Y160782D01*
X326964Y160782D01*
X334458Y160782D02*
X336322Y162647D01*
X336322Y157054D01*
X334458Y157054D02*
X338186Y157054D01*
X340071Y157986D02*
X340071Y161714D01*
X341003Y162647D01*
X342867Y162647D01*
X343799Y161714D01*
X343799Y157986D01*
X342867Y157054D01*
X341003Y157054D01*
X340071Y157986D01*
X343799Y161714D01*
X345684Y160782D02*
X347548Y157054D01*
X349413Y160782D01*
D12*
X245400Y87380D02*
X245398Y87280D01*
X245392Y87181D01*
X245382Y87081D01*
X245369Y86983D01*
X245351Y86884D01*
X245330Y86787D01*
X245305Y86691D01*
X245276Y86595D01*
X245243Y86501D01*
X245207Y86408D01*
X245167Y86317D01*
X245123Y86227D01*
X245076Y86139D01*
X245026Y86053D01*
X244972Y85969D01*
X244915Y85887D01*
X244855Y85808D01*
X244791Y85730D01*
X244725Y85656D01*
X244656Y85584D01*
X244584Y85515D01*
X244510Y85449D01*
X244432Y85385D01*
X244353Y85325D01*
X244271Y85268D01*
X244187Y85214D01*
X244101Y85164D01*
X244013Y85117D01*
X243923Y85073D01*
X243832Y85033D01*
X243739Y84997D01*
X243645Y84964D01*
X243549Y84935D01*
X243453Y84910D01*
X243356Y84889D01*
X243257Y84871D01*
X243159Y84858D01*
X243059Y84848D01*
X242960Y84842D01*
X242860Y84840D01*
X245400Y102620D02*
X245398Y102720D01*
X245392Y102819D01*
X245382Y102919D01*
X245369Y103017D01*
X245351Y103116D01*
X245330Y103213D01*
X245305Y103309D01*
X245276Y103405D01*
X245243Y103499D01*
X245207Y103592D01*
X245167Y103683D01*
X245123Y103773D01*
X245076Y103861D01*
X245026Y103947D01*
X244972Y104031D01*
X244915Y104113D01*
X244855Y104192D01*
X244791Y104270D01*
X244725Y104344D01*
X244656Y104416D01*
X244584Y104485D01*
X244510Y104551D01*
X244432Y104615D01*
X244353Y104675D01*
X244271Y104732D01*
X244187Y104786D01*
X244101Y104836D01*
X244013Y104883D01*
X243923Y104927D01*
X243832Y104967D01*
X243739Y105003D01*
X243645Y105036D01*
X243549Y105065D01*
X243453Y105090D01*
X243356Y105111D01*
X243257Y105129D01*
X243159Y105142D01*
X243059Y105152D01*
X242960Y105158D01*
X242860Y105160D01*
X197140Y105160D02*
X197040Y105158D01*
X196941Y105152D01*
X196841Y105142D01*
X196743Y105129D01*
X196644Y105111D01*
X196547Y105090D01*
X196451Y105065D01*
X196355Y105036D01*
X196261Y105003D01*
X196168Y104967D01*
X196077Y104927D01*
X195987Y104883D01*
X195899Y104836D01*
X195813Y104786D01*
X195729Y104732D01*
X195647Y104675D01*
X195568Y104615D01*
X195490Y104551D01*
X195416Y104485D01*
X195344Y104416D01*
X195275Y104344D01*
X195209Y104270D01*
X195145Y104192D01*
X195085Y104113D01*
X195028Y104031D01*
X194974Y103947D01*
X194924Y103861D01*
X194877Y103773D01*
X194833Y103683D01*
X194793Y103592D01*
X194757Y103499D01*
X194724Y103405D01*
X194695Y103309D01*
X194670Y103213D01*
X194649Y103116D01*
X194631Y103017D01*
X194618Y102919D01*
X194608Y102819D01*
X194602Y102720D01*
X194600Y102620D01*
X194600Y87380D02*
X194602Y87280D01*
X194608Y87181D01*
X194618Y87081D01*
X194631Y86983D01*
X194649Y86884D01*
X194670Y86787D01*
X194695Y86691D01*
X194724Y86595D01*
X194757Y86501D01*
X194793Y86408D01*
X194833Y86317D01*
X194877Y86227D01*
X194924Y86139D01*
X194974Y86053D01*
X195028Y85969D01*
X195085Y85887D01*
X195145Y85808D01*
X195209Y85730D01*
X195275Y85656D01*
X195344Y85584D01*
X195416Y85515D01*
X195490Y85449D01*
X195568Y85385D01*
X195647Y85325D01*
X195729Y85268D01*
X195813Y85214D01*
X195899Y85164D01*
X195987Y85117D01*
X196077Y85073D01*
X196168Y85033D01*
X196261Y84997D01*
X196355Y84964D01*
X196451Y84935D01*
X196547Y84910D01*
X196644Y84889D01*
X196743Y84871D01*
X196841Y84858D01*
X196941Y84848D01*
X197040Y84842D01*
X197140Y84840D01*
X245400Y87380D02*
X245400Y102620D01*
X242860Y84840D02*
X239050Y84840D01*
X237780Y86110D01*
X239050Y105160D02*
X242860Y105160D01*
X239050Y105160D02*
X237780Y103890D01*
X202220Y86110D02*
X200950Y84840D01*
X202220Y86110D02*
X237780Y86110D01*
X202220Y103890D02*
X200950Y105160D01*
X202220Y103890D02*
X237780Y103890D01*
X200950Y84840D02*
X197140Y84840D01*
X197140Y105160D02*
X200950Y105160D01*
X194600Y102620D02*
X194600Y87380D01*
D13*
X192695Y95000D03*
X247305Y95000D03*
D11*
X202211Y107158D02*
X202211Y112751D01*
X199415Y109954D01*
X203143Y109954D01*
X205028Y112751D02*
X208756Y112751D01*
X208756Y111819D01*
X205028Y108090D01*
X205028Y107158D01*
X210641Y108090D02*
X210641Y111819D01*
X211573Y112751D01*
X213437Y112751D01*
X214369Y111819D01*
X214369Y108090D01*
X213437Y107158D01*
X211573Y107158D01*
X210641Y108090D01*
X214369Y111819D01*
D12*
X212860Y249840D02*
X212960Y249842D01*
X213059Y249848D01*
X213159Y249858D01*
X213257Y249871D01*
X213356Y249889D01*
X213453Y249910D01*
X213549Y249935D01*
X213645Y249964D01*
X213739Y249997D01*
X213832Y250033D01*
X213923Y250073D01*
X214013Y250117D01*
X214101Y250164D01*
X214187Y250214D01*
X214271Y250268D01*
X214353Y250325D01*
X214432Y250385D01*
X214510Y250449D01*
X214584Y250515D01*
X214656Y250584D01*
X214725Y250656D01*
X214791Y250730D01*
X214855Y250808D01*
X214915Y250887D01*
X214972Y250969D01*
X215026Y251053D01*
X215076Y251139D01*
X215123Y251227D01*
X215167Y251317D01*
X215207Y251408D01*
X215243Y251501D01*
X215276Y251595D01*
X215305Y251691D01*
X215330Y251787D01*
X215351Y251884D01*
X215369Y251983D01*
X215382Y252081D01*
X215392Y252181D01*
X215398Y252280D01*
X215400Y252380D01*
X215400Y267620D02*
X215398Y267720D01*
X215392Y267819D01*
X215382Y267919D01*
X215369Y268017D01*
X215351Y268116D01*
X215330Y268213D01*
X215305Y268309D01*
X215276Y268405D01*
X215243Y268499D01*
X215207Y268592D01*
X215167Y268683D01*
X215123Y268773D01*
X215076Y268861D01*
X215026Y268947D01*
X214972Y269031D01*
X214915Y269113D01*
X214855Y269192D01*
X214791Y269270D01*
X214725Y269344D01*
X214656Y269416D01*
X214584Y269485D01*
X214510Y269551D01*
X214432Y269615D01*
X214353Y269675D01*
X214271Y269732D01*
X214187Y269786D01*
X214101Y269836D01*
X214013Y269883D01*
X213923Y269927D01*
X213832Y269967D01*
X213739Y270003D01*
X213645Y270036D01*
X213549Y270065D01*
X213453Y270090D01*
X213356Y270111D01*
X213257Y270129D01*
X213159Y270142D01*
X213059Y270152D01*
X212960Y270158D01*
X212860Y270160D01*
X167140Y270160D02*
X167040Y270158D01*
X166941Y270152D01*
X166841Y270142D01*
X166743Y270129D01*
X166644Y270111D01*
X166547Y270090D01*
X166451Y270065D01*
X166355Y270036D01*
X166261Y270003D01*
X166168Y269967D01*
X166077Y269927D01*
X165987Y269883D01*
X165899Y269836D01*
X165813Y269786D01*
X165729Y269732D01*
X165647Y269675D01*
X165568Y269615D01*
X165490Y269551D01*
X165416Y269485D01*
X165344Y269416D01*
X165275Y269344D01*
X165209Y269270D01*
X165145Y269192D01*
X165085Y269113D01*
X165028Y269031D01*
X164974Y268947D01*
X164924Y268861D01*
X164877Y268773D01*
X164833Y268683D01*
X164793Y268592D01*
X164757Y268499D01*
X164724Y268405D01*
X164695Y268309D01*
X164670Y268213D01*
X164649Y268116D01*
X164631Y268017D01*
X164618Y267919D01*
X164608Y267819D01*
X164602Y267720D01*
X164600Y267620D01*
X164600Y252380D02*
X164602Y252280D01*
X164608Y252181D01*
X164618Y252081D01*
X164631Y251983D01*
X164649Y251884D01*
X164670Y251787D01*
X164695Y251691D01*
X164724Y251595D01*
X164757Y251501D01*
X164793Y251408D01*
X164833Y251317D01*
X164877Y251227D01*
X164924Y251139D01*
X164974Y251053D01*
X165028Y250969D01*
X165085Y250887D01*
X165145Y250808D01*
X165209Y250730D01*
X165275Y250656D01*
X165344Y250584D01*
X165416Y250515D01*
X165490Y250449D01*
X165568Y250385D01*
X165647Y250325D01*
X165729Y250268D01*
X165813Y250214D01*
X165899Y250164D01*
X165987Y250117D01*
X166077Y250073D01*
X166168Y250033D01*
X166261Y249997D01*
X166355Y249964D01*
X166451Y249935D01*
X166547Y249910D01*
X166644Y249889D01*
X166743Y249871D01*
X166841Y249858D01*
X166941Y249848D01*
X167040Y249842D01*
X167140Y249840D01*
X215400Y252380D02*
X215400Y267620D01*
X212860Y249840D02*
X209050Y249840D01*
X207780Y251110D01*
X209050Y270160D02*
X212860Y270160D01*
X209050Y270160D02*
X207780Y268890D01*
X172220Y251110D02*
X170950Y249840D01*
X172220Y251110D02*
X207780Y251110D01*
X172220Y268890D02*
X170950Y270160D01*
X172220Y268890D02*
X207780Y268890D01*
X170950Y249840D02*
X167140Y249840D01*
X167140Y270160D02*
X170950Y270160D01*
X164600Y267620D02*
X164600Y252380D01*
D13*
X162695Y260000D03*
X217305Y260000D03*
D11*
X175429Y272129D02*
X171700Y272129D01*
X175429Y275858D01*
X175429Y276790D01*
X174497Y277722D01*
X172632Y277722D01*
X171700Y276790D01*
X177313Y272129D02*
X181042Y272129D01*
X177313Y272129D02*
X181042Y275858D01*
X181042Y276790D01*
X180110Y277722D01*
X178246Y277722D01*
X177313Y276790D01*
X182927Y276790D02*
X182927Y273061D01*
X182927Y276790D02*
X183859Y277722D01*
X185723Y277722D01*
X186655Y276790D01*
X186655Y273061D01*
X185723Y272129D01*
X183859Y272129D01*
X182927Y273061D01*
X186655Y276790D01*
D12*
X156900Y150790D02*
X233100Y150790D01*
X233100Y209210D02*
X156900Y209210D01*
X156900Y150790D01*
X233100Y150790D02*
X233100Y169840D01*
X233100Y190160D02*
X233100Y209210D01*
X233100Y190160D02*
X232853Y190157D01*
X232605Y190148D01*
X232358Y190133D01*
X232112Y190112D01*
X231866Y190085D01*
X231621Y190052D01*
X231376Y190013D01*
X231133Y189968D01*
X230891Y189917D01*
X230650Y189860D01*
X230411Y189798D01*
X230173Y189729D01*
X229937Y189655D01*
X229703Y189575D01*
X229471Y189490D01*
X229241Y189398D01*
X229013Y189302D01*
X228788Y189199D01*
X228565Y189092D01*
X228345Y188978D01*
X228128Y188860D01*
X227913Y188736D01*
X227702Y188607D01*
X227494Y188473D01*
X227289Y188334D01*
X227088Y188190D01*
X226890Y188042D01*
X226696Y187888D01*
X226506Y187730D01*
X226320Y187567D01*
X226138Y187400D01*
X225960Y187228D01*
X225786Y187052D01*
X225616Y186872D01*
X225451Y186687D01*
X225291Y186499D01*
X225135Y186307D01*
X224983Y186111D01*
X224837Y185912D01*
X224695Y185709D01*
X224559Y185502D01*
X224427Y185293D01*
X224301Y185080D01*
X224180Y184864D01*
X224064Y184646D01*
X223954Y184424D01*
X223849Y184200D01*
X223749Y183974D01*
X223655Y183745D01*
X223567Y183514D01*
X223484Y183280D01*
X223407Y183045D01*
X223336Y182808D01*
X223270Y182570D01*
X223211Y182330D01*
X223157Y182088D01*
X223109Y181845D01*
X223067Y181602D01*
X223031Y181357D01*
X223001Y181111D01*
X222977Y180865D01*
X222959Y180618D01*
X222947Y180371D01*
X222941Y180124D01*
X222941Y179876D01*
X222947Y179629D01*
X222959Y179382D01*
X222977Y179135D01*
X223001Y178889D01*
X223031Y178643D01*
X223067Y178398D01*
X223109Y178155D01*
X223157Y177912D01*
X223211Y177670D01*
X223270Y177430D01*
X223336Y177192D01*
X223407Y176955D01*
X223484Y176720D01*
X223567Y176486D01*
X223655Y176255D01*
X223749Y176026D01*
X223849Y175800D01*
X223954Y175576D01*
X224064Y175354D01*
X224180Y175136D01*
X224301Y174920D01*
X224427Y174707D01*
X224559Y174498D01*
X224695Y174291D01*
X224837Y174088D01*
X224983Y173889D01*
X225135Y173693D01*
X225291Y173501D01*
X225451Y173313D01*
X225616Y173128D01*
X225786Y172948D01*
X225960Y172772D01*
X226138Y172600D01*
X226320Y172433D01*
X226506Y172270D01*
X226696Y172112D01*
X226890Y171958D01*
X227088Y171810D01*
X227289Y171666D01*
X227494Y171527D01*
X227702Y171393D01*
X227913Y171264D01*
X228128Y171140D01*
X228345Y171022D01*
X228565Y170908D01*
X228788Y170801D01*
X229013Y170698D01*
X229241Y170602D01*
X229471Y170510D01*
X229703Y170425D01*
X229937Y170345D01*
X230173Y170271D01*
X230411Y170202D01*
X230650Y170140D01*
X230891Y170083D01*
X231133Y170032D01*
X231376Y169987D01*
X231621Y169948D01*
X231866Y169915D01*
X232112Y169888D01*
X232358Y169867D01*
X232605Y169852D01*
X232853Y169843D01*
X233100Y169840D01*
D11*
X156832Y236110D02*
X156832Y241703D01*
X158696Y241703D02*
X154967Y241703D01*
X160580Y236110D02*
X162445Y236110D01*
X161513Y236110D02*
X161513Y241703D01*
X162445Y241703D02*
X160580Y241703D01*
X164322Y241703D02*
X164322Y236110D01*
X168051Y236110D01*
X169936Y239839D02*
X171800Y241703D01*
X171800Y236110D01*
X169936Y236110D02*
X173664Y236110D01*
X175549Y239839D02*
X177413Y241703D01*
X177413Y236110D01*
X175549Y236110D02*
X179277Y236110D01*
X181162Y240771D02*
X182094Y241703D01*
X183958Y241703D01*
X184890Y240771D01*
X184890Y239839D01*
X183958Y238907D01*
X183026Y238907D01*
X183958Y238907D02*
X184890Y237975D01*
X184890Y237042D01*
X183958Y236110D01*
X182094Y236110D01*
X181162Y237042D01*
X186775Y238907D02*
X190503Y238907D01*
X195184Y241703D02*
X196116Y240771D01*
X195184Y241703D02*
X193320Y241703D01*
X192388Y240771D01*
X192388Y239839D01*
X193320Y238907D01*
X195184Y238907D01*
X196116Y237975D01*
X196116Y237042D01*
X195184Y236110D01*
X193320Y236110D01*
X192388Y237042D01*
X198001Y241703D02*
X201730Y241703D01*
X198001Y241703D02*
X198001Y236110D01*
X201730Y236110D01*
X199865Y238907D02*
X198001Y238907D01*
X203614Y241703D02*
X203614Y236110D01*
X203614Y241703D02*
X206410Y241703D01*
X207343Y240771D01*
X207343Y238907D01*
X206410Y237975D01*
X203614Y237975D01*
X205478Y237975D02*
X207343Y236110D01*
X209227Y236110D02*
X211091Y236110D01*
X210159Y236110D02*
X210159Y241703D01*
X209227Y241703D02*
X211091Y241703D01*
X212969Y239839D02*
X212969Y236110D01*
X212969Y239839D02*
X214834Y241703D01*
X216698Y239839D01*
X216698Y236110D01*
X216698Y238907D02*
X212969Y238907D01*
X218582Y241703D02*
X218582Y236110D01*
X222311Y236110D01*
D14*
X43031Y224842D02*
X43031Y224800D01*
X43031Y224842D02*
X43200Y224842D01*
X43200Y224800D02*
X43200Y224885D01*
X42946Y224842D02*
X42903Y224842D01*
X43031Y224956D02*
X43200Y224956D01*
X43031Y224956D02*
X43031Y225083D01*
X43073Y225125D01*
X43200Y225125D01*
X43073Y225190D02*
X43073Y225359D01*
X43285Y225508D02*
X43285Y225551D01*
X43242Y225593D01*
X43031Y225593D01*
X43031Y225466D01*
X43073Y225424D01*
X43158Y225424D01*
X43200Y225466D01*
X43200Y225593D01*
X43200Y225658D02*
X43031Y225658D01*
X43115Y225658D02*
X43031Y225742D01*
X43031Y225785D01*
X43200Y225895D02*
X43200Y225980D01*
X43158Y226022D01*
X43073Y226022D01*
X43031Y225980D01*
X43031Y225895D01*
X43073Y225852D01*
X43158Y225852D01*
X43200Y225895D01*
X43158Y226086D02*
X43031Y226086D01*
X43158Y226086D02*
X43200Y226129D01*
X43200Y226256D01*
X43031Y226256D01*
X43031Y226320D02*
X43200Y226320D01*
X43031Y226320D02*
X43031Y226447D01*
X43073Y226490D01*
X43200Y226490D01*
X43200Y226724D02*
X42946Y226724D01*
X43200Y226724D02*
X43200Y226596D01*
X43158Y226554D01*
X43073Y226554D01*
X43031Y226596D01*
X43031Y226724D01*
D12*
X517014Y122127D02*
X517014Y117047D01*
X517014Y122127D02*
X511934Y122127D01*
X511934Y96727D02*
X517014Y96727D01*
X517014Y101807D01*
X496694Y96727D02*
X491614Y96727D01*
X491614Y101807D01*
X491614Y117047D02*
X491614Y122127D01*
X496694Y122127D01*
X517014Y45927D02*
X517014Y40847D01*
X517014Y45927D02*
X511934Y45927D01*
X511934Y20527D02*
X517014Y20527D01*
X517014Y25607D01*
X496694Y20527D02*
X491614Y20527D01*
X491614Y25607D01*
X491614Y40847D02*
X491614Y45927D01*
X496694Y45927D01*
X351914Y117047D02*
X351914Y122127D01*
X346834Y122127D01*
X346834Y96727D02*
X351914Y96727D01*
X351914Y101807D01*
X331594Y96727D02*
X326514Y96727D01*
X326514Y101807D01*
X326514Y117047D02*
X326514Y122127D01*
X331594Y122127D01*
X351914Y45927D02*
X351914Y40847D01*
X351914Y45927D02*
X346834Y45927D01*
X346834Y20527D02*
X351914Y20527D01*
X351914Y25607D01*
X331594Y20527D02*
X326514Y20527D01*
X326514Y25607D01*
X326514Y40847D02*
X326514Y45927D01*
X331594Y45927D01*
X120400Y252380D02*
X120398Y252280D01*
X120392Y252181D01*
X120382Y252081D01*
X120369Y251983D01*
X120351Y251884D01*
X120330Y251787D01*
X120305Y251691D01*
X120276Y251595D01*
X120243Y251501D01*
X120207Y251408D01*
X120167Y251317D01*
X120123Y251227D01*
X120076Y251139D01*
X120026Y251053D01*
X119972Y250969D01*
X119915Y250887D01*
X119855Y250808D01*
X119791Y250730D01*
X119725Y250656D01*
X119656Y250584D01*
X119584Y250515D01*
X119510Y250449D01*
X119432Y250385D01*
X119353Y250325D01*
X119271Y250268D01*
X119187Y250214D01*
X119101Y250164D01*
X119013Y250117D01*
X118923Y250073D01*
X118832Y250033D01*
X118739Y249997D01*
X118645Y249964D01*
X118549Y249935D01*
X118453Y249910D01*
X118356Y249889D01*
X118257Y249871D01*
X118159Y249858D01*
X118059Y249848D01*
X117960Y249842D01*
X117860Y249840D01*
X120400Y267620D02*
X120398Y267720D01*
X120392Y267819D01*
X120382Y267919D01*
X120369Y268017D01*
X120351Y268116D01*
X120330Y268213D01*
X120305Y268309D01*
X120276Y268405D01*
X120243Y268499D01*
X120207Y268592D01*
X120167Y268683D01*
X120123Y268773D01*
X120076Y268861D01*
X120026Y268947D01*
X119972Y269031D01*
X119915Y269113D01*
X119855Y269192D01*
X119791Y269270D01*
X119725Y269344D01*
X119656Y269416D01*
X119584Y269485D01*
X119510Y269551D01*
X119432Y269615D01*
X119353Y269675D01*
X119271Y269732D01*
X119187Y269786D01*
X119101Y269836D01*
X119013Y269883D01*
X118923Y269927D01*
X118832Y269967D01*
X118739Y270003D01*
X118645Y270036D01*
X118549Y270065D01*
X118453Y270090D01*
X118356Y270111D01*
X118257Y270129D01*
X118159Y270142D01*
X118059Y270152D01*
X117960Y270158D01*
X117860Y270160D01*
X72140Y270160D02*
X72040Y270158D01*
X71941Y270152D01*
X71841Y270142D01*
X71743Y270129D01*
X71644Y270111D01*
X71547Y270090D01*
X71451Y270065D01*
X71355Y270036D01*
X71261Y270003D01*
X71168Y269967D01*
X71077Y269927D01*
X70987Y269883D01*
X70899Y269836D01*
X70813Y269786D01*
X70729Y269732D01*
X70647Y269675D01*
X70568Y269615D01*
X70490Y269551D01*
X70416Y269485D01*
X70344Y269416D01*
X70275Y269344D01*
X70209Y269270D01*
X70145Y269192D01*
X70085Y269113D01*
X70028Y269031D01*
X69974Y268947D01*
X69924Y268861D01*
X69877Y268773D01*
X69833Y268683D01*
X69793Y268592D01*
X69757Y268499D01*
X69724Y268405D01*
X69695Y268309D01*
X69670Y268213D01*
X69649Y268116D01*
X69631Y268017D01*
X69618Y267919D01*
X69608Y267819D01*
X69602Y267720D01*
X69600Y267620D01*
X69600Y252380D02*
X69602Y252280D01*
X69608Y252181D01*
X69618Y252081D01*
X69631Y251983D01*
X69649Y251884D01*
X69670Y251787D01*
X69695Y251691D01*
X69724Y251595D01*
X69757Y251501D01*
X69793Y251408D01*
X69833Y251317D01*
X69877Y251227D01*
X69924Y251139D01*
X69974Y251053D01*
X70028Y250969D01*
X70085Y250887D01*
X70145Y250808D01*
X70209Y250730D01*
X70275Y250656D01*
X70344Y250584D01*
X70416Y250515D01*
X70490Y250449D01*
X70568Y250385D01*
X70647Y250325D01*
X70729Y250268D01*
X70813Y250214D01*
X70899Y250164D01*
X70987Y250117D01*
X71077Y250073D01*
X71168Y250033D01*
X71261Y249997D01*
X71355Y249964D01*
X71451Y249935D01*
X71547Y249910D01*
X71644Y249889D01*
X71743Y249871D01*
X71841Y249858D01*
X71941Y249848D01*
X72040Y249842D01*
X72140Y249840D01*
X120400Y252380D02*
X120400Y267620D01*
X117860Y249840D02*
X114050Y249840D01*
X112780Y251110D01*
X114050Y270160D02*
X117860Y270160D01*
X114050Y270160D02*
X112780Y268890D01*
X77220Y251110D02*
X75950Y249840D01*
X77220Y251110D02*
X112780Y251110D01*
X77220Y268890D02*
X75950Y270160D01*
X77220Y268890D02*
X112780Y268890D01*
X75950Y249840D02*
X72140Y249840D01*
X72140Y270160D02*
X75950Y270160D01*
X69600Y267620D02*
X69600Y252380D01*
D13*
X67695Y260000D03*
X122305Y260000D03*
D11*
X80743Y272284D02*
X77014Y272284D01*
X80743Y276012D01*
X80743Y276944D01*
X79810Y277877D01*
X77946Y277877D01*
X77014Y276944D01*
X82627Y272284D02*
X86356Y272284D01*
X86356Y276012D02*
X82627Y272284D01*
X86356Y276012D02*
X86356Y276944D01*
X85424Y277877D01*
X83559Y277877D01*
X82627Y276944D01*
X88240Y276944D02*
X88240Y273216D01*
X88240Y276944D02*
X89172Y277877D01*
X91037Y277877D01*
X91969Y276944D01*
X91969Y273216D01*
X91037Y272284D01*
X89172Y272284D01*
X88240Y273216D01*
X91969Y276944D01*
D12*
X71900Y150790D02*
X148100Y150790D01*
X148100Y209210D02*
X71900Y209210D01*
X71900Y150790D01*
X148100Y150790D02*
X148100Y169840D01*
X148100Y190160D02*
X148100Y209210D01*
X148100Y190160D02*
X147853Y190157D01*
X147605Y190148D01*
X147358Y190133D01*
X147112Y190112D01*
X146866Y190085D01*
X146621Y190052D01*
X146376Y190013D01*
X146133Y189968D01*
X145891Y189917D01*
X145650Y189860D01*
X145411Y189798D01*
X145173Y189729D01*
X144937Y189655D01*
X144703Y189575D01*
X144471Y189490D01*
X144241Y189398D01*
X144013Y189302D01*
X143788Y189199D01*
X143565Y189092D01*
X143345Y188978D01*
X143128Y188860D01*
X142913Y188736D01*
X142702Y188607D01*
X142494Y188473D01*
X142289Y188334D01*
X142088Y188190D01*
X141890Y188042D01*
X141696Y187888D01*
X141506Y187730D01*
X141320Y187567D01*
X141138Y187400D01*
X140960Y187228D01*
X140786Y187052D01*
X140616Y186872D01*
X140451Y186687D01*
X140291Y186499D01*
X140135Y186307D01*
X139983Y186111D01*
X139837Y185912D01*
X139695Y185709D01*
X139559Y185502D01*
X139427Y185293D01*
X139301Y185080D01*
X139180Y184864D01*
X139064Y184646D01*
X138954Y184424D01*
X138849Y184200D01*
X138749Y183974D01*
X138655Y183745D01*
X138567Y183514D01*
X138484Y183280D01*
X138407Y183045D01*
X138336Y182808D01*
X138270Y182570D01*
X138211Y182330D01*
X138157Y182088D01*
X138109Y181845D01*
X138067Y181602D01*
X138031Y181357D01*
X138001Y181111D01*
X137977Y180865D01*
X137959Y180618D01*
X137947Y180371D01*
X137941Y180124D01*
X137941Y179876D01*
X137947Y179629D01*
X137959Y179382D01*
X137977Y179135D01*
X138001Y178889D01*
X138031Y178643D01*
X138067Y178398D01*
X138109Y178155D01*
X138157Y177912D01*
X138211Y177670D01*
X138270Y177430D01*
X138336Y177192D01*
X138407Y176955D01*
X138484Y176720D01*
X138567Y176486D01*
X138655Y176255D01*
X138749Y176026D01*
X138849Y175800D01*
X138954Y175576D01*
X139064Y175354D01*
X139180Y175136D01*
X139301Y174920D01*
X139427Y174707D01*
X139559Y174498D01*
X139695Y174291D01*
X139837Y174088D01*
X139983Y173889D01*
X140135Y173693D01*
X140291Y173501D01*
X140451Y173313D01*
X140616Y173128D01*
X140786Y172948D01*
X140960Y172772D01*
X141138Y172600D01*
X141320Y172433D01*
X141506Y172270D01*
X141696Y172112D01*
X141890Y171958D01*
X142088Y171810D01*
X142289Y171666D01*
X142494Y171527D01*
X142702Y171393D01*
X142913Y171264D01*
X143128Y171140D01*
X143345Y171022D01*
X143565Y170908D01*
X143788Y170801D01*
X144013Y170698D01*
X144241Y170602D01*
X144471Y170510D01*
X144703Y170425D01*
X144937Y170345D01*
X145173Y170271D01*
X145411Y170202D01*
X145650Y170140D01*
X145891Y170083D01*
X146133Y170032D01*
X146376Y169987D01*
X146621Y169948D01*
X146866Y169915D01*
X147112Y169888D01*
X147358Y169867D01*
X147605Y169852D01*
X147853Y169843D01*
X148100Y169840D01*
D11*
X72960Y234077D02*
X72960Y239669D01*
X71096Y239669D02*
X74824Y239669D01*
X76709Y234077D02*
X78573Y234077D01*
X77641Y234077D02*
X77641Y239669D01*
X76709Y239669D02*
X78573Y239669D01*
X80451Y239669D02*
X80451Y234077D01*
X84179Y234077D01*
X86064Y237805D02*
X87928Y239669D01*
X87928Y234077D01*
X86064Y234077D02*
X89792Y234077D01*
X91677Y237805D02*
X93541Y239669D01*
X93541Y234077D01*
X91677Y234077D02*
X95405Y234077D01*
X97290Y238737D02*
X98222Y239669D01*
X100086Y239669D01*
X101018Y238737D01*
X101018Y237805D01*
X100086Y236873D01*
X99154Y236873D01*
X100086Y236873D02*
X101018Y235941D01*
X101018Y235009D01*
X100086Y234077D01*
X98222Y234077D01*
X97290Y235009D01*
X108516Y234077D02*
X108516Y239669D01*
X111313Y239669D01*
X112245Y238737D01*
X112245Y236873D01*
X111313Y235941D01*
X108516Y235941D01*
X110380Y235941D02*
X112245Y234077D01*
X114129Y239669D02*
X117858Y239669D01*
X114129Y239669D02*
X114129Y234077D01*
X117858Y234077D01*
X115994Y236873D02*
X114129Y236873D01*
X122539Y239669D02*
X123471Y238737D01*
X122539Y239669D02*
X120674Y239669D01*
X119742Y238737D01*
X119742Y237805D01*
X120674Y236873D01*
X122539Y236873D01*
X123471Y235941D01*
X123471Y235009D01*
X122539Y234077D01*
X120674Y234077D01*
X119742Y235009D01*
X125355Y239669D02*
X129084Y239669D01*
X125355Y239669D02*
X125355Y234077D01*
X129084Y234077D01*
X127220Y236873D02*
X125355Y236873D01*
X132833Y234077D02*
X132833Y239669D01*
X130969Y239669D02*
X134697Y239669D01*
D10*
X417700Y232700D02*
X417700Y220000D01*
X417700Y207300D02*
X405000Y232700D01*
X405000Y207300D02*
X417700Y207300D01*
X392300Y207300D02*
X405000Y232700D01*
X417700Y232700D01*
X405000Y207300D02*
X405000Y192060D01*
X405000Y207300D02*
X392300Y207300D01*
X405000Y232700D02*
X405000Y247940D01*
X405000Y232700D02*
X392300Y232700D01*
X392300Y245400D01*
D11*
X425159Y184335D02*
X425159Y180607D01*
X425159Y184335D02*
X428887Y180607D01*
X428887Y184335D01*
X428887Y187152D02*
X428887Y189016D01*
X428887Y187152D02*
X427955Y186220D01*
X426091Y186220D01*
X425159Y187152D01*
X425159Y189016D01*
X426091Y189948D01*
X427023Y189948D01*
X427023Y186220D01*
X428887Y191833D02*
X425159Y191833D01*
X425159Y194629D01*
X426091Y195561D01*
X428887Y195561D01*
X428887Y198378D02*
X428887Y200242D01*
X428887Y198378D02*
X427955Y197446D01*
X426091Y197446D01*
X425159Y198378D01*
X425159Y200242D01*
X426091Y201174D01*
X427023Y201174D01*
X427023Y197446D01*
X428887Y203059D02*
X425159Y203059D01*
X427023Y203059D02*
X425159Y204923D01*
X425159Y205855D01*
X424227Y213350D02*
X423295Y214282D01*
X423295Y216146D01*
X424227Y217078D01*
X425159Y217078D01*
X426091Y216146D01*
X426091Y215214D01*
X426091Y216146D02*
X427023Y217078D01*
X427955Y217078D01*
X428887Y216146D01*
X428887Y214282D01*
X427955Y213350D01*
X427955Y218963D02*
X428887Y218963D01*
X427955Y218963D02*
X427955Y219895D01*
X428887Y219895D01*
X428887Y218963D01*
X427955Y221769D02*
X428887Y222702D01*
X428887Y224566D01*
X427955Y225498D01*
X424227Y225498D01*
X423295Y224566D01*
X423295Y222702D01*
X424227Y221769D01*
X425159Y221769D01*
X426091Y222702D01*
X426091Y225498D01*
X425159Y227382D02*
X428887Y229247D01*
X425159Y231111D01*
D12*
X392140Y155160D02*
X392040Y155158D01*
X391941Y155152D01*
X391841Y155142D01*
X391743Y155129D01*
X391644Y155111D01*
X391547Y155090D01*
X391451Y155065D01*
X391355Y155036D01*
X391261Y155003D01*
X391168Y154967D01*
X391077Y154927D01*
X390987Y154883D01*
X390899Y154836D01*
X390813Y154786D01*
X390729Y154732D01*
X390647Y154675D01*
X390568Y154615D01*
X390490Y154551D01*
X390416Y154485D01*
X390344Y154416D01*
X390275Y154344D01*
X390209Y154270D01*
X390145Y154192D01*
X390085Y154113D01*
X390028Y154031D01*
X389974Y153947D01*
X389924Y153861D01*
X389877Y153773D01*
X389833Y153683D01*
X389793Y153592D01*
X389757Y153499D01*
X389724Y153405D01*
X389695Y153309D01*
X389670Y153213D01*
X389649Y153116D01*
X389631Y153017D01*
X389618Y152919D01*
X389608Y152819D01*
X389602Y152720D01*
X389600Y152620D01*
X389600Y137380D02*
X389602Y137280D01*
X389608Y137181D01*
X389618Y137081D01*
X389631Y136983D01*
X389649Y136884D01*
X389670Y136787D01*
X389695Y136691D01*
X389724Y136595D01*
X389757Y136501D01*
X389793Y136408D01*
X389833Y136317D01*
X389877Y136227D01*
X389924Y136139D01*
X389974Y136053D01*
X390028Y135969D01*
X390085Y135887D01*
X390145Y135808D01*
X390209Y135730D01*
X390275Y135656D01*
X390344Y135584D01*
X390416Y135515D01*
X390490Y135449D01*
X390568Y135385D01*
X390647Y135325D01*
X390729Y135268D01*
X390813Y135214D01*
X390899Y135164D01*
X390987Y135117D01*
X391077Y135073D01*
X391168Y135033D01*
X391261Y134997D01*
X391355Y134964D01*
X391451Y134935D01*
X391547Y134910D01*
X391644Y134889D01*
X391743Y134871D01*
X391841Y134858D01*
X391941Y134848D01*
X392040Y134842D01*
X392140Y134840D01*
X437860Y134840D02*
X437960Y134842D01*
X438059Y134848D01*
X438159Y134858D01*
X438257Y134871D01*
X438356Y134889D01*
X438453Y134910D01*
X438549Y134935D01*
X438645Y134964D01*
X438739Y134997D01*
X438832Y135033D01*
X438923Y135073D01*
X439013Y135117D01*
X439101Y135164D01*
X439187Y135214D01*
X439271Y135268D01*
X439353Y135325D01*
X439432Y135385D01*
X439510Y135449D01*
X439584Y135515D01*
X439656Y135584D01*
X439725Y135656D01*
X439791Y135730D01*
X439855Y135808D01*
X439915Y135887D01*
X439972Y135969D01*
X440026Y136053D01*
X440076Y136139D01*
X440123Y136227D01*
X440167Y136317D01*
X440207Y136408D01*
X440243Y136501D01*
X440276Y136595D01*
X440305Y136691D01*
X440330Y136787D01*
X440351Y136884D01*
X440369Y136983D01*
X440382Y137081D01*
X440392Y137181D01*
X440398Y137280D01*
X440400Y137380D01*
X440400Y152620D02*
X440398Y152720D01*
X440392Y152819D01*
X440382Y152919D01*
X440369Y153017D01*
X440351Y153116D01*
X440330Y153213D01*
X440305Y153309D01*
X440276Y153405D01*
X440243Y153499D01*
X440207Y153592D01*
X440167Y153683D01*
X440123Y153773D01*
X440076Y153861D01*
X440026Y153947D01*
X439972Y154031D01*
X439915Y154113D01*
X439855Y154192D01*
X439791Y154270D01*
X439725Y154344D01*
X439656Y154416D01*
X439584Y154485D01*
X439510Y154551D01*
X439432Y154615D01*
X439353Y154675D01*
X439271Y154732D01*
X439187Y154786D01*
X439101Y154836D01*
X439013Y154883D01*
X438923Y154927D01*
X438832Y154967D01*
X438739Y155003D01*
X438645Y155036D01*
X438549Y155065D01*
X438453Y155090D01*
X438356Y155111D01*
X438257Y155129D01*
X438159Y155142D01*
X438059Y155152D01*
X437960Y155158D01*
X437860Y155160D01*
X389600Y152620D02*
X389600Y137380D01*
X392140Y155160D02*
X395950Y155160D01*
X397220Y153890D01*
X395950Y134840D02*
X392140Y134840D01*
X395950Y134840D02*
X397220Y136110D01*
X432780Y153890D02*
X434050Y155160D01*
X432780Y153890D02*
X397220Y153890D01*
X432780Y136110D02*
X434050Y134840D01*
X432780Y136110D02*
X397220Y136110D01*
X434050Y155160D02*
X437860Y155160D01*
X437860Y134840D02*
X434050Y134840D01*
X440400Y137380D02*
X440400Y152620D01*
D13*
X442305Y145000D03*
X387695Y145000D03*
D11*
X399696Y160803D02*
X401560Y162667D01*
X401560Y157075D01*
X399696Y157075D02*
X403424Y157075D01*
X405309Y158007D02*
X405309Y161735D01*
X406241Y162667D01*
X408105Y162667D01*
X409037Y161735D01*
X409037Y158007D01*
X408105Y157075D01*
X406241Y157075D01*
X405309Y158007D01*
X409037Y161735D01*
X410922Y161735D02*
X410922Y158007D01*
X410922Y161735D02*
X411854Y162667D01*
X413718Y162667D01*
X414650Y161735D01*
X414650Y158007D01*
X413718Y157075D01*
X411854Y157075D01*
X410922Y158007D01*
X414650Y161735D01*
D10*
X472000Y225500D02*
X517000Y225500D01*
X517000Y132500D01*
X472000Y132500D01*
X472000Y225500D01*
D12*
X483489Y153500D02*
X483492Y153770D01*
X483502Y154040D01*
X483519Y154310D01*
X483542Y154579D01*
X483572Y154848D01*
X483608Y155116D01*
X483651Y155382D01*
X483701Y155648D01*
X483757Y155913D01*
X483819Y156175D01*
X483888Y156437D01*
X483963Y156696D01*
X484045Y156954D01*
X484133Y157209D01*
X484227Y157463D01*
X484327Y157714D01*
X484434Y157962D01*
X484546Y158208D01*
X484665Y158451D01*
X484789Y158691D01*
X484919Y158927D01*
X485056Y159161D01*
X485197Y159391D01*
X485345Y159617D01*
X485498Y159840D01*
X485656Y160059D01*
X485820Y160274D01*
X485988Y160485D01*
X486162Y160692D01*
X486341Y160895D01*
X486525Y161093D01*
X486714Y161286D01*
X486907Y161475D01*
X487105Y161659D01*
X487308Y161838D01*
X487515Y162012D01*
X487726Y162180D01*
X487941Y162344D01*
X488160Y162502D01*
X488383Y162655D01*
X488609Y162803D01*
X488839Y162944D01*
X489073Y163081D01*
X489309Y163211D01*
X489549Y163335D01*
X489792Y163454D01*
X490038Y163566D01*
X490286Y163673D01*
X490537Y163773D01*
X490791Y163867D01*
X491046Y163955D01*
X491304Y164037D01*
X491563Y164112D01*
X491825Y164181D01*
X492087Y164243D01*
X492352Y164299D01*
X492618Y164349D01*
X492884Y164392D01*
X493152Y164428D01*
X493421Y164458D01*
X493690Y164481D01*
X493960Y164498D01*
X494230Y164508D01*
X494500Y164511D01*
X494770Y164508D01*
X495040Y164498D01*
X495310Y164481D01*
X495579Y164458D01*
X495848Y164428D01*
X496116Y164392D01*
X496382Y164349D01*
X496648Y164299D01*
X496913Y164243D01*
X497175Y164181D01*
X497437Y164112D01*
X497696Y164037D01*
X497954Y163955D01*
X498209Y163867D01*
X498463Y163773D01*
X498714Y163673D01*
X498962Y163566D01*
X499208Y163454D01*
X499451Y163335D01*
X499691Y163211D01*
X499927Y163081D01*
X500161Y162944D01*
X500391Y162803D01*
X500617Y162655D01*
X500840Y162502D01*
X501059Y162344D01*
X501274Y162180D01*
X501485Y162012D01*
X501692Y161838D01*
X501895Y161659D01*
X502093Y161475D01*
X502286Y161286D01*
X502475Y161093D01*
X502659Y160895D01*
X502838Y160692D01*
X503012Y160485D01*
X503180Y160274D01*
X503344Y160059D01*
X503502Y159840D01*
X503655Y159617D01*
X503803Y159391D01*
X503944Y159161D01*
X504081Y158927D01*
X504211Y158691D01*
X504335Y158451D01*
X504454Y158208D01*
X504566Y157962D01*
X504673Y157714D01*
X504773Y157463D01*
X504867Y157209D01*
X504955Y156954D01*
X505037Y156696D01*
X505112Y156437D01*
X505181Y156175D01*
X505243Y155913D01*
X505299Y155648D01*
X505349Y155382D01*
X505392Y155116D01*
X505428Y154848D01*
X505458Y154579D01*
X505481Y154310D01*
X505498Y154040D01*
X505508Y153770D01*
X505511Y153500D01*
X505508Y153230D01*
X505498Y152960D01*
X505481Y152690D01*
X505458Y152421D01*
X505428Y152152D01*
X505392Y151884D01*
X505349Y151618D01*
X505299Y151352D01*
X505243Y151087D01*
X505181Y150825D01*
X505112Y150563D01*
X505037Y150304D01*
X504955Y150046D01*
X504867Y149791D01*
X504773Y149537D01*
X504673Y149286D01*
X504566Y149038D01*
X504454Y148792D01*
X504335Y148549D01*
X504211Y148309D01*
X504081Y148073D01*
X503944Y147839D01*
X503803Y147609D01*
X503655Y147383D01*
X503502Y147160D01*
X503344Y146941D01*
X503180Y146726D01*
X503012Y146515D01*
X502838Y146308D01*
X502659Y146105D01*
X502475Y145907D01*
X502286Y145714D01*
X502093Y145525D01*
X501895Y145341D01*
X501692Y145162D01*
X501485Y144988D01*
X501274Y144820D01*
X501059Y144656D01*
X500840Y144498D01*
X500617Y144345D01*
X500391Y144197D01*
X500161Y144056D01*
X499927Y143919D01*
X499691Y143789D01*
X499451Y143665D01*
X499208Y143546D01*
X498962Y143434D01*
X498714Y143327D01*
X498463Y143227D01*
X498209Y143133D01*
X497954Y143045D01*
X497696Y142963D01*
X497437Y142888D01*
X497175Y142819D01*
X496913Y142757D01*
X496648Y142701D01*
X496382Y142651D01*
X496116Y142608D01*
X495848Y142572D01*
X495579Y142542D01*
X495310Y142519D01*
X495040Y142502D01*
X494770Y142492D01*
X494500Y142489D01*
X494230Y142492D01*
X493960Y142502D01*
X493690Y142519D01*
X493421Y142542D01*
X493152Y142572D01*
X492884Y142608D01*
X492618Y142651D01*
X492352Y142701D01*
X492087Y142757D01*
X491825Y142819D01*
X491563Y142888D01*
X491304Y142963D01*
X491046Y143045D01*
X490791Y143133D01*
X490537Y143227D01*
X490286Y143327D01*
X490038Y143434D01*
X489792Y143546D01*
X489549Y143665D01*
X489309Y143789D01*
X489073Y143919D01*
X488839Y144056D01*
X488609Y144197D01*
X488383Y144345D01*
X488160Y144498D01*
X487941Y144656D01*
X487726Y144820D01*
X487515Y144988D01*
X487308Y145162D01*
X487105Y145341D01*
X486907Y145525D01*
X486714Y145714D01*
X486525Y145907D01*
X486341Y146105D01*
X486162Y146308D01*
X485988Y146515D01*
X485820Y146726D01*
X485656Y146941D01*
X485498Y147160D01*
X485345Y147383D01*
X485197Y147609D01*
X485056Y147839D01*
X484919Y148073D01*
X484789Y148309D01*
X484665Y148549D01*
X484546Y148792D01*
X484434Y149038D01*
X484327Y149286D01*
X484227Y149537D01*
X484133Y149791D01*
X484045Y150046D01*
X483963Y150304D01*
X483888Y150563D01*
X483819Y150825D01*
X483757Y151087D01*
X483701Y151352D01*
X483651Y151618D01*
X483608Y151884D01*
X483572Y152152D01*
X483542Y152421D01*
X483519Y152690D01*
X483502Y152960D01*
X483492Y153230D01*
X483489Y153500D01*
D11*
X462000Y211013D02*
X462000Y214741D01*
X462000Y211013D02*
X464796Y211013D01*
X463864Y212877D01*
X463864Y213809D01*
X464796Y214741D01*
X466660Y214741D01*
X467592Y213809D01*
X467592Y211945D01*
X466660Y211013D01*
X466660Y216626D02*
X462932Y216626D01*
X462000Y217558D01*
X462000Y219422D01*
X462932Y220354D01*
X466660Y220354D01*
X467592Y219422D01*
X467592Y217558D01*
X466660Y216626D01*
X462932Y220354D01*
X463864Y222239D02*
X462000Y224103D01*
X467592Y224103D01*
X467592Y222239D02*
X467592Y225967D01*
D10*
X68500Y117500D02*
X68500Y72500D01*
X68500Y117500D02*
X161500Y117500D01*
X161500Y72500D01*
X68500Y72500D01*
D12*
X129489Y95000D02*
X129492Y95270D01*
X129502Y95540D01*
X129519Y95810D01*
X129542Y96079D01*
X129572Y96348D01*
X129608Y96616D01*
X129651Y96882D01*
X129701Y97148D01*
X129757Y97413D01*
X129819Y97675D01*
X129888Y97937D01*
X129963Y98196D01*
X130045Y98454D01*
X130133Y98709D01*
X130227Y98963D01*
X130327Y99214D01*
X130434Y99462D01*
X130546Y99708D01*
X130665Y99951D01*
X130789Y100191D01*
X130919Y100427D01*
X131056Y100661D01*
X131197Y100891D01*
X131345Y101117D01*
X131498Y101340D01*
X131656Y101559D01*
X131820Y101774D01*
X131988Y101985D01*
X132162Y102192D01*
X132341Y102395D01*
X132525Y102593D01*
X132714Y102786D01*
X132907Y102975D01*
X133105Y103159D01*
X133308Y103338D01*
X133515Y103512D01*
X133726Y103680D01*
X133941Y103844D01*
X134160Y104002D01*
X134383Y104155D01*
X134609Y104303D01*
X134839Y104444D01*
X135073Y104581D01*
X135309Y104711D01*
X135549Y104835D01*
X135792Y104954D01*
X136038Y105066D01*
X136286Y105173D01*
X136537Y105273D01*
X136791Y105367D01*
X137046Y105455D01*
X137304Y105537D01*
X137563Y105612D01*
X137825Y105681D01*
X138087Y105743D01*
X138352Y105799D01*
X138618Y105849D01*
X138884Y105892D01*
X139152Y105928D01*
X139421Y105958D01*
X139690Y105981D01*
X139960Y105998D01*
X140230Y106008D01*
X140500Y106011D01*
X140770Y106008D01*
X141040Y105998D01*
X141310Y105981D01*
X141579Y105958D01*
X141848Y105928D01*
X142116Y105892D01*
X142382Y105849D01*
X142648Y105799D01*
X142913Y105743D01*
X143175Y105681D01*
X143437Y105612D01*
X143696Y105537D01*
X143954Y105455D01*
X144209Y105367D01*
X144463Y105273D01*
X144714Y105173D01*
X144962Y105066D01*
X145208Y104954D01*
X145451Y104835D01*
X145691Y104711D01*
X145927Y104581D01*
X146161Y104444D01*
X146391Y104303D01*
X146617Y104155D01*
X146840Y104002D01*
X147059Y103844D01*
X147274Y103680D01*
X147485Y103512D01*
X147692Y103338D01*
X147895Y103159D01*
X148093Y102975D01*
X148286Y102786D01*
X148475Y102593D01*
X148659Y102395D01*
X148838Y102192D01*
X149012Y101985D01*
X149180Y101774D01*
X149344Y101559D01*
X149502Y101340D01*
X149655Y101117D01*
X149803Y100891D01*
X149944Y100661D01*
X150081Y100427D01*
X150211Y100191D01*
X150335Y99951D01*
X150454Y99708D01*
X150566Y99462D01*
X150673Y99214D01*
X150773Y98963D01*
X150867Y98709D01*
X150955Y98454D01*
X151037Y98196D01*
X151112Y97937D01*
X151181Y97675D01*
X151243Y97413D01*
X151299Y97148D01*
X151349Y96882D01*
X151392Y96616D01*
X151428Y96348D01*
X151458Y96079D01*
X151481Y95810D01*
X151498Y95540D01*
X151508Y95270D01*
X151511Y95000D01*
X151508Y94730D01*
X151498Y94460D01*
X151481Y94190D01*
X151458Y93921D01*
X151428Y93652D01*
X151392Y93384D01*
X151349Y93118D01*
X151299Y92852D01*
X151243Y92587D01*
X151181Y92325D01*
X151112Y92063D01*
X151037Y91804D01*
X150955Y91546D01*
X150867Y91291D01*
X150773Y91037D01*
X150673Y90786D01*
X150566Y90538D01*
X150454Y90292D01*
X150335Y90049D01*
X150211Y89809D01*
X150081Y89573D01*
X149944Y89339D01*
X149803Y89109D01*
X149655Y88883D01*
X149502Y88660D01*
X149344Y88441D01*
X149180Y88226D01*
X149012Y88015D01*
X148838Y87808D01*
X148659Y87605D01*
X148475Y87407D01*
X148286Y87214D01*
X148093Y87025D01*
X147895Y86841D01*
X147692Y86662D01*
X147485Y86488D01*
X147274Y86320D01*
X147059Y86156D01*
X146840Y85998D01*
X146617Y85845D01*
X146391Y85697D01*
X146161Y85556D01*
X145927Y85419D01*
X145691Y85289D01*
X145451Y85165D01*
X145208Y85046D01*
X144962Y84934D01*
X144714Y84827D01*
X144463Y84727D01*
X144209Y84633D01*
X143954Y84545D01*
X143696Y84463D01*
X143437Y84388D01*
X143175Y84319D01*
X142913Y84257D01*
X142648Y84201D01*
X142382Y84151D01*
X142116Y84108D01*
X141848Y84072D01*
X141579Y84042D01*
X141310Y84019D01*
X141040Y84002D01*
X140770Y83992D01*
X140500Y83989D01*
X140230Y83992D01*
X139960Y84002D01*
X139690Y84019D01*
X139421Y84042D01*
X139152Y84072D01*
X138884Y84108D01*
X138618Y84151D01*
X138352Y84201D01*
X138087Y84257D01*
X137825Y84319D01*
X137563Y84388D01*
X137304Y84463D01*
X137046Y84545D01*
X136791Y84633D01*
X136537Y84727D01*
X136286Y84827D01*
X136038Y84934D01*
X135792Y85046D01*
X135549Y85165D01*
X135309Y85289D01*
X135073Y85419D01*
X134839Y85556D01*
X134609Y85697D01*
X134383Y85845D01*
X134160Y85998D01*
X133941Y86156D01*
X133726Y86320D01*
X133515Y86488D01*
X133308Y86662D01*
X133105Y86841D01*
X132907Y87025D01*
X132714Y87214D01*
X132525Y87407D01*
X132341Y87605D01*
X132162Y87808D01*
X131988Y88015D01*
X131820Y88226D01*
X131656Y88441D01*
X131498Y88660D01*
X131345Y88883D01*
X131197Y89109D01*
X131056Y89339D01*
X130919Y89573D01*
X130789Y89809D01*
X130665Y90049D01*
X130546Y90292D01*
X130434Y90538D01*
X130327Y90786D01*
X130227Y91037D01*
X130133Y91291D01*
X130045Y91546D01*
X129963Y91804D01*
X129888Y92063D01*
X129819Y92325D01*
X129757Y92587D01*
X129701Y92852D01*
X129651Y93118D01*
X129608Y93384D01*
X129572Y93652D01*
X129542Y93921D01*
X129519Y94190D01*
X129502Y94460D01*
X129492Y94730D01*
X129489Y95000D01*
D11*
X142821Y67195D02*
X140956Y65331D01*
X142821Y67195D02*
X142821Y61602D01*
X144685Y61602D02*
X140956Y61602D01*
X146570Y62534D02*
X146570Y66263D01*
X147502Y67195D01*
X149366Y67195D01*
X150298Y66263D01*
X150298Y62534D01*
X149366Y61602D01*
X147502Y61602D01*
X146570Y62534D01*
X150298Y66263D01*
X152183Y67195D02*
X155911Y67195D01*
X152183Y67195D02*
X152183Y64399D01*
X154047Y65331D01*
X154979Y65331D01*
X155911Y64399D01*
X155911Y62534D01*
X154979Y61602D01*
X153115Y61602D01*
X152183Y62534D01*
D12*
X253650Y261590D02*
X266350Y261590D01*
X266490Y261588D01*
X266630Y261582D01*
X266770Y261573D01*
X266909Y261559D01*
X267048Y261542D01*
X267186Y261521D01*
X267324Y261496D01*
X267461Y261467D01*
X267597Y261435D01*
X267732Y261398D01*
X267866Y261358D01*
X267999Y261315D01*
X268131Y261267D01*
X268262Y261217D01*
X268391Y261162D01*
X268518Y261104D01*
X268644Y261043D01*
X268768Y260978D01*
X268890Y260909D01*
X269010Y260838D01*
X269128Y260763D01*
X269245Y260685D01*
X269359Y260603D01*
X269470Y260519D01*
X269579Y260431D01*
X269686Y260341D01*
X269791Y260247D01*
X269892Y260151D01*
X269991Y260052D01*
X270087Y259951D01*
X270181Y259846D01*
X270271Y259739D01*
X270359Y259630D01*
X270443Y259519D01*
X270525Y259405D01*
X270603Y259288D01*
X270678Y259170D01*
X270749Y259050D01*
X270818Y258928D01*
X270883Y258804D01*
X270944Y258678D01*
X271002Y258551D01*
X271057Y258422D01*
X271107Y258291D01*
X271155Y258159D01*
X271198Y258026D01*
X271238Y257892D01*
X271275Y257757D01*
X271307Y257621D01*
X271336Y257484D01*
X271361Y257346D01*
X271382Y257208D01*
X271399Y257069D01*
X271413Y256930D01*
X271422Y256790D01*
X271428Y256650D01*
X271430Y256510D01*
X253650Y261590D02*
X253510Y261588D01*
X253370Y261582D01*
X253230Y261573D01*
X253091Y261559D01*
X252952Y261542D01*
X252814Y261521D01*
X252676Y261496D01*
X252539Y261467D01*
X252403Y261435D01*
X252268Y261398D01*
X252134Y261358D01*
X252001Y261315D01*
X251869Y261267D01*
X251738Y261217D01*
X251609Y261162D01*
X251482Y261104D01*
X251356Y261043D01*
X251232Y260978D01*
X251110Y260909D01*
X250990Y260838D01*
X250872Y260763D01*
X250755Y260685D01*
X250641Y260603D01*
X250530Y260519D01*
X250421Y260431D01*
X250314Y260341D01*
X250209Y260247D01*
X250108Y260151D01*
X250009Y260052D01*
X249913Y259951D01*
X249819Y259846D01*
X249729Y259739D01*
X249641Y259630D01*
X249557Y259519D01*
X249475Y259405D01*
X249397Y259288D01*
X249322Y259170D01*
X249251Y259050D01*
X249182Y258928D01*
X249117Y258804D01*
X249056Y258678D01*
X248998Y258551D01*
X248943Y258422D01*
X248893Y258291D01*
X248845Y258159D01*
X248802Y258026D01*
X248762Y257892D01*
X248725Y257757D01*
X248693Y257621D01*
X248664Y257484D01*
X248639Y257346D01*
X248618Y257208D01*
X248601Y257069D01*
X248587Y256930D01*
X248578Y256790D01*
X248572Y256650D01*
X248570Y256510D01*
X271430Y256510D02*
X271430Y223490D01*
X266350Y218410D02*
X253650Y218410D01*
X248570Y223490D02*
X248570Y256510D01*
X271430Y223490D02*
X271428Y223350D01*
X271422Y223210D01*
X271413Y223070D01*
X271399Y222931D01*
X271382Y222792D01*
X271361Y222654D01*
X271336Y222516D01*
X271307Y222379D01*
X271275Y222243D01*
X271238Y222108D01*
X271198Y221974D01*
X271155Y221841D01*
X271107Y221709D01*
X271057Y221578D01*
X271002Y221449D01*
X270944Y221322D01*
X270883Y221196D01*
X270818Y221072D01*
X270749Y220950D01*
X270678Y220830D01*
X270603Y220712D01*
X270525Y220595D01*
X270443Y220481D01*
X270359Y220370D01*
X270271Y220261D01*
X270181Y220154D01*
X270087Y220049D01*
X269991Y219948D01*
X269892Y219849D01*
X269791Y219753D01*
X269686Y219659D01*
X269579Y219569D01*
X269470Y219481D01*
X269359Y219397D01*
X269245Y219315D01*
X269128Y219237D01*
X269010Y219162D01*
X268890Y219091D01*
X268768Y219022D01*
X268644Y218957D01*
X268518Y218896D01*
X268391Y218838D01*
X268262Y218783D01*
X268131Y218733D01*
X267999Y218685D01*
X267866Y218642D01*
X267732Y218602D01*
X267597Y218565D01*
X267461Y218533D01*
X267324Y218504D01*
X267186Y218479D01*
X267048Y218458D01*
X266909Y218441D01*
X266770Y218427D01*
X266630Y218418D01*
X266490Y218412D01*
X266350Y218410D01*
X253650Y218410D02*
X253510Y218412D01*
X253370Y218418D01*
X253230Y218427D01*
X253091Y218441D01*
X252952Y218458D01*
X252814Y218479D01*
X252676Y218504D01*
X252539Y218533D01*
X252403Y218565D01*
X252268Y218602D01*
X252134Y218642D01*
X252001Y218685D01*
X251869Y218733D01*
X251738Y218783D01*
X251609Y218838D01*
X251482Y218896D01*
X251356Y218957D01*
X251232Y219022D01*
X251110Y219091D01*
X250990Y219162D01*
X250872Y219237D01*
X250755Y219315D01*
X250641Y219397D01*
X250530Y219481D01*
X250421Y219569D01*
X250314Y219659D01*
X250209Y219753D01*
X250108Y219849D01*
X250009Y219948D01*
X249913Y220049D01*
X249819Y220154D01*
X249729Y220261D01*
X249641Y220370D01*
X249557Y220481D01*
X249475Y220595D01*
X249397Y220712D01*
X249322Y220830D01*
X249251Y220950D01*
X249182Y221072D01*
X249117Y221196D01*
X249056Y221322D01*
X248998Y221449D01*
X248943Y221578D01*
X248893Y221709D01*
X248845Y221841D01*
X248802Y221974D01*
X248762Y222108D01*
X248725Y222243D01*
X248693Y222379D01*
X248664Y222516D01*
X248639Y222654D01*
X248618Y222792D01*
X248601Y222931D01*
X248587Y223070D01*
X248578Y223210D01*
X248572Y223350D01*
X248570Y223490D01*
D15*
X252380Y243048D02*
X267620Y243048D01*
X267620Y236698D02*
X252380Y236698D01*
D11*
X240444Y226195D02*
X238579Y228059D01*
X244172Y228059D01*
X244172Y226195D02*
X244172Y229923D01*
X243240Y231808D02*
X240444Y231808D01*
X243240Y231808D02*
X244172Y232740D01*
X244172Y235536D01*
X240444Y235536D01*
X238579Y237421D02*
X244172Y237421D01*
X238579Y237421D02*
X238579Y241149D01*
X241376Y239285D02*
X241376Y237421D01*
D12*
X245400Y57380D02*
X245398Y57280D01*
X245392Y57181D01*
X245382Y57081D01*
X245369Y56983D01*
X245351Y56884D01*
X245330Y56787D01*
X245305Y56691D01*
X245276Y56595D01*
X245243Y56501D01*
X245207Y56408D01*
X245167Y56317D01*
X245123Y56227D01*
X245076Y56139D01*
X245026Y56053D01*
X244972Y55969D01*
X244915Y55887D01*
X244855Y55808D01*
X244791Y55730D01*
X244725Y55656D01*
X244656Y55584D01*
X244584Y55515D01*
X244510Y55449D01*
X244432Y55385D01*
X244353Y55325D01*
X244271Y55268D01*
X244187Y55214D01*
X244101Y55164D01*
X244013Y55117D01*
X243923Y55073D01*
X243832Y55033D01*
X243739Y54997D01*
X243645Y54964D01*
X243549Y54935D01*
X243453Y54910D01*
X243356Y54889D01*
X243257Y54871D01*
X243159Y54858D01*
X243059Y54848D01*
X242960Y54842D01*
X242860Y54840D01*
X245400Y72620D02*
X245398Y72720D01*
X245392Y72819D01*
X245382Y72919D01*
X245369Y73017D01*
X245351Y73116D01*
X245330Y73213D01*
X245305Y73309D01*
X245276Y73405D01*
X245243Y73499D01*
X245207Y73592D01*
X245167Y73683D01*
X245123Y73773D01*
X245076Y73861D01*
X245026Y73947D01*
X244972Y74031D01*
X244915Y74113D01*
X244855Y74192D01*
X244791Y74270D01*
X244725Y74344D01*
X244656Y74416D01*
X244584Y74485D01*
X244510Y74551D01*
X244432Y74615D01*
X244353Y74675D01*
X244271Y74732D01*
X244187Y74786D01*
X244101Y74836D01*
X244013Y74883D01*
X243923Y74927D01*
X243832Y74967D01*
X243739Y75003D01*
X243645Y75036D01*
X243549Y75065D01*
X243453Y75090D01*
X243356Y75111D01*
X243257Y75129D01*
X243159Y75142D01*
X243059Y75152D01*
X242960Y75158D01*
X242860Y75160D01*
X197140Y75160D02*
X197040Y75158D01*
X196941Y75152D01*
X196841Y75142D01*
X196743Y75129D01*
X196644Y75111D01*
X196547Y75090D01*
X196451Y75065D01*
X196355Y75036D01*
X196261Y75003D01*
X196168Y74967D01*
X196077Y74927D01*
X195987Y74883D01*
X195899Y74836D01*
X195813Y74786D01*
X195729Y74732D01*
X195647Y74675D01*
X195568Y74615D01*
X195490Y74551D01*
X195416Y74485D01*
X195344Y74416D01*
X195275Y74344D01*
X195209Y74270D01*
X195145Y74192D01*
X195085Y74113D01*
X195028Y74031D01*
X194974Y73947D01*
X194924Y73861D01*
X194877Y73773D01*
X194833Y73683D01*
X194793Y73592D01*
X194757Y73499D01*
X194724Y73405D01*
X194695Y73309D01*
X194670Y73213D01*
X194649Y73116D01*
X194631Y73017D01*
X194618Y72919D01*
X194608Y72819D01*
X194602Y72720D01*
X194600Y72620D01*
X194600Y57380D02*
X194602Y57280D01*
X194608Y57181D01*
X194618Y57081D01*
X194631Y56983D01*
X194649Y56884D01*
X194670Y56787D01*
X194695Y56691D01*
X194724Y56595D01*
X194757Y56501D01*
X194793Y56408D01*
X194833Y56317D01*
X194877Y56227D01*
X194924Y56139D01*
X194974Y56053D01*
X195028Y55969D01*
X195085Y55887D01*
X195145Y55808D01*
X195209Y55730D01*
X195275Y55656D01*
X195344Y55584D01*
X195416Y55515D01*
X195490Y55449D01*
X195568Y55385D01*
X195647Y55325D01*
X195729Y55268D01*
X195813Y55214D01*
X195899Y55164D01*
X195987Y55117D01*
X196077Y55073D01*
X196168Y55033D01*
X196261Y54997D01*
X196355Y54964D01*
X196451Y54935D01*
X196547Y54910D01*
X196644Y54889D01*
X196743Y54871D01*
X196841Y54858D01*
X196941Y54848D01*
X197040Y54842D01*
X197140Y54840D01*
X245400Y57380D02*
X245400Y72620D01*
X242860Y54840D02*
X239050Y54840D01*
X237780Y56110D01*
X239050Y75160D02*
X242860Y75160D01*
X239050Y75160D02*
X237780Y73890D01*
X202220Y56110D02*
X200950Y54840D01*
X202220Y56110D02*
X237780Y56110D01*
X202220Y73890D02*
X200950Y75160D01*
X202220Y73890D02*
X237780Y73890D01*
X200950Y54840D02*
X197140Y54840D01*
X197140Y75160D02*
X200950Y75160D01*
X194600Y72620D02*
X194600Y57380D01*
D13*
X192695Y65000D03*
X247305Y65000D03*
D11*
X203272Y77158D02*
X199544Y77158D01*
X203272Y80887D01*
X203272Y81819D01*
X202340Y82751D01*
X200476Y82751D01*
X199544Y81819D01*
X205157Y78090D02*
X205157Y77158D01*
X205157Y78090D02*
X206089Y78090D01*
X206089Y77158D01*
X205157Y77158D01*
X207963Y77158D02*
X211692Y77158D01*
X207963Y77158D02*
X211692Y80887D01*
X211692Y81819D01*
X210760Y82751D01*
X208895Y82751D01*
X207963Y81819D01*
X213576Y82751D02*
X213576Y77158D01*
X213576Y79022D02*
X216373Y77158D01*
X213576Y79022D02*
X216373Y80887D01*
D12*
X87140Y45160D02*
X87040Y45158D01*
X86941Y45152D01*
X86841Y45142D01*
X86743Y45129D01*
X86644Y45111D01*
X86547Y45090D01*
X86451Y45065D01*
X86355Y45036D01*
X86261Y45003D01*
X86168Y44967D01*
X86077Y44927D01*
X85987Y44883D01*
X85899Y44836D01*
X85813Y44786D01*
X85729Y44732D01*
X85647Y44675D01*
X85568Y44615D01*
X85490Y44551D01*
X85416Y44485D01*
X85344Y44416D01*
X85275Y44344D01*
X85209Y44270D01*
X85145Y44192D01*
X85085Y44113D01*
X85028Y44031D01*
X84974Y43947D01*
X84924Y43861D01*
X84877Y43773D01*
X84833Y43683D01*
X84793Y43592D01*
X84757Y43499D01*
X84724Y43405D01*
X84695Y43309D01*
X84670Y43213D01*
X84649Y43116D01*
X84631Y43017D01*
X84618Y42919D01*
X84608Y42819D01*
X84602Y42720D01*
X84600Y42620D01*
X84600Y27380D02*
X84602Y27280D01*
X84608Y27181D01*
X84618Y27081D01*
X84631Y26983D01*
X84649Y26884D01*
X84670Y26787D01*
X84695Y26691D01*
X84724Y26595D01*
X84757Y26501D01*
X84793Y26408D01*
X84833Y26317D01*
X84877Y26227D01*
X84924Y26139D01*
X84974Y26053D01*
X85028Y25969D01*
X85085Y25887D01*
X85145Y25808D01*
X85209Y25730D01*
X85275Y25656D01*
X85344Y25584D01*
X85416Y25515D01*
X85490Y25449D01*
X85568Y25385D01*
X85647Y25325D01*
X85729Y25268D01*
X85813Y25214D01*
X85899Y25164D01*
X85987Y25117D01*
X86077Y25073D01*
X86168Y25033D01*
X86261Y24997D01*
X86355Y24964D01*
X86451Y24935D01*
X86547Y24910D01*
X86644Y24889D01*
X86743Y24871D01*
X86841Y24858D01*
X86941Y24848D01*
X87040Y24842D01*
X87140Y24840D01*
X132860Y24840D02*
X132960Y24842D01*
X133059Y24848D01*
X133159Y24858D01*
X133257Y24871D01*
X133356Y24889D01*
X133453Y24910D01*
X133549Y24935D01*
X133645Y24964D01*
X133739Y24997D01*
X133832Y25033D01*
X133923Y25073D01*
X134013Y25117D01*
X134101Y25164D01*
X134187Y25214D01*
X134271Y25268D01*
X134353Y25325D01*
X134432Y25385D01*
X134510Y25449D01*
X134584Y25515D01*
X134656Y25584D01*
X134725Y25656D01*
X134791Y25730D01*
X134855Y25808D01*
X134915Y25887D01*
X134972Y25969D01*
X135026Y26053D01*
X135076Y26139D01*
X135123Y26227D01*
X135167Y26317D01*
X135207Y26408D01*
X135243Y26501D01*
X135276Y26595D01*
X135305Y26691D01*
X135330Y26787D01*
X135351Y26884D01*
X135369Y26983D01*
X135382Y27081D01*
X135392Y27181D01*
X135398Y27280D01*
X135400Y27380D01*
X135400Y42620D02*
X135398Y42720D01*
X135392Y42819D01*
X135382Y42919D01*
X135369Y43017D01*
X135351Y43116D01*
X135330Y43213D01*
X135305Y43309D01*
X135276Y43405D01*
X135243Y43499D01*
X135207Y43592D01*
X135167Y43683D01*
X135123Y43773D01*
X135076Y43861D01*
X135026Y43947D01*
X134972Y44031D01*
X134915Y44113D01*
X134855Y44192D01*
X134791Y44270D01*
X134725Y44344D01*
X134656Y44416D01*
X134584Y44485D01*
X134510Y44551D01*
X134432Y44615D01*
X134353Y44675D01*
X134271Y44732D01*
X134187Y44786D01*
X134101Y44836D01*
X134013Y44883D01*
X133923Y44927D01*
X133832Y44967D01*
X133739Y45003D01*
X133645Y45036D01*
X133549Y45065D01*
X133453Y45090D01*
X133356Y45111D01*
X133257Y45129D01*
X133159Y45142D01*
X133059Y45152D01*
X132960Y45158D01*
X132860Y45160D01*
X84600Y42620D02*
X84600Y27380D01*
X87140Y45160D02*
X90950Y45160D01*
X92220Y43890D01*
X90950Y24840D02*
X87140Y24840D01*
X90950Y24840D02*
X92220Y26110D01*
X127780Y43890D02*
X129050Y45160D01*
X127780Y43890D02*
X92220Y43890D01*
X127780Y26110D02*
X129050Y24840D01*
X127780Y26110D02*
X92220Y26110D01*
X129050Y45160D02*
X132860Y45160D01*
X132860Y24840D02*
X129050Y24840D01*
X135400Y27380D02*
X135400Y42620D01*
D13*
X137305Y35000D03*
X82695Y35000D03*
D11*
X93130Y52010D02*
X94994Y53874D01*
X94994Y48281D01*
X93130Y48281D02*
X96859Y48281D01*
X98743Y49213D02*
X98743Y52942D01*
X99675Y53874D01*
X101540Y53874D01*
X102472Y52942D01*
X102472Y49213D01*
X101540Y48281D01*
X99675Y48281D01*
X98743Y49213D01*
X102472Y52942D01*
X104356Y53874D02*
X104356Y48281D01*
X104356Y50146D02*
X108085Y53874D01*
X105288Y51078D02*
X108085Y48281D01*
D12*
X242860Y24840D02*
X242960Y24842D01*
X243059Y24848D01*
X243159Y24858D01*
X243257Y24871D01*
X243356Y24889D01*
X243453Y24910D01*
X243549Y24935D01*
X243645Y24964D01*
X243739Y24997D01*
X243832Y25033D01*
X243923Y25073D01*
X244013Y25117D01*
X244101Y25164D01*
X244187Y25214D01*
X244271Y25268D01*
X244353Y25325D01*
X244432Y25385D01*
X244510Y25449D01*
X244584Y25515D01*
X244656Y25584D01*
X244725Y25656D01*
X244791Y25730D01*
X244855Y25808D01*
X244915Y25887D01*
X244972Y25969D01*
X245026Y26053D01*
X245076Y26139D01*
X245123Y26227D01*
X245167Y26317D01*
X245207Y26408D01*
X245243Y26501D01*
X245276Y26595D01*
X245305Y26691D01*
X245330Y26787D01*
X245351Y26884D01*
X245369Y26983D01*
X245382Y27081D01*
X245392Y27181D01*
X245398Y27280D01*
X245400Y27380D01*
X245400Y42620D02*
X245398Y42720D01*
X245392Y42819D01*
X245382Y42919D01*
X245369Y43017D01*
X245351Y43116D01*
X245330Y43213D01*
X245305Y43309D01*
X245276Y43405D01*
X245243Y43499D01*
X245207Y43592D01*
X245167Y43683D01*
X245123Y43773D01*
X245076Y43861D01*
X245026Y43947D01*
X244972Y44031D01*
X244915Y44113D01*
X244855Y44192D01*
X244791Y44270D01*
X244725Y44344D01*
X244656Y44416D01*
X244584Y44485D01*
X244510Y44551D01*
X244432Y44615D01*
X244353Y44675D01*
X244271Y44732D01*
X244187Y44786D01*
X244101Y44836D01*
X244013Y44883D01*
X243923Y44927D01*
X243832Y44967D01*
X243739Y45003D01*
X243645Y45036D01*
X243549Y45065D01*
X243453Y45090D01*
X243356Y45111D01*
X243257Y45129D01*
X243159Y45142D01*
X243059Y45152D01*
X242960Y45158D01*
X242860Y45160D01*
X197140Y45160D02*
X197040Y45158D01*
X196941Y45152D01*
X196841Y45142D01*
X196743Y45129D01*
X196644Y45111D01*
X196547Y45090D01*
X196451Y45065D01*
X196355Y45036D01*
X196261Y45003D01*
X196168Y44967D01*
X196077Y44927D01*
X195987Y44883D01*
X195899Y44836D01*
X195813Y44786D01*
X195729Y44732D01*
X195647Y44675D01*
X195568Y44615D01*
X195490Y44551D01*
X195416Y44485D01*
X195344Y44416D01*
X195275Y44344D01*
X195209Y44270D01*
X195145Y44192D01*
X195085Y44113D01*
X195028Y44031D01*
X194974Y43947D01*
X194924Y43861D01*
X194877Y43773D01*
X194833Y43683D01*
X194793Y43592D01*
X194757Y43499D01*
X194724Y43405D01*
X194695Y43309D01*
X194670Y43213D01*
X194649Y43116D01*
X194631Y43017D01*
X194618Y42919D01*
X194608Y42819D01*
X194602Y42720D01*
X194600Y42620D01*
X194600Y27380D02*
X194602Y27280D01*
X194608Y27181D01*
X194618Y27081D01*
X194631Y26983D01*
X194649Y26884D01*
X194670Y26787D01*
X194695Y26691D01*
X194724Y26595D01*
X194757Y26501D01*
X194793Y26408D01*
X194833Y26317D01*
X194877Y26227D01*
X194924Y26139D01*
X194974Y26053D01*
X195028Y25969D01*
X195085Y25887D01*
X195145Y25808D01*
X195209Y25730D01*
X195275Y25656D01*
X195344Y25584D01*
X195416Y25515D01*
X195490Y25449D01*
X195568Y25385D01*
X195647Y25325D01*
X195729Y25268D01*
X195813Y25214D01*
X195899Y25164D01*
X195987Y25117D01*
X196077Y25073D01*
X196168Y25033D01*
X196261Y24997D01*
X196355Y24964D01*
X196451Y24935D01*
X196547Y24910D01*
X196644Y24889D01*
X196743Y24871D01*
X196841Y24858D01*
X196941Y24848D01*
X197040Y24842D01*
X197140Y24840D01*
X245400Y27380D02*
X245400Y42620D01*
X242860Y24840D02*
X239050Y24840D01*
X237780Y26110D01*
X239050Y45160D02*
X242860Y45160D01*
X239050Y45160D02*
X237780Y43890D01*
X202220Y26110D02*
X200950Y24840D01*
X202220Y26110D02*
X237780Y26110D01*
X202220Y43890D02*
X200950Y45160D01*
X202220Y43890D02*
X237780Y43890D01*
X200950Y24840D02*
X197140Y24840D01*
X197140Y45160D02*
X200950Y45160D01*
X194600Y42620D02*
X194600Y27380D01*
D13*
X192695Y35000D03*
X247305Y35000D03*
D11*
X203307Y51472D02*
X201443Y49608D01*
X203307Y51472D02*
X203307Y45879D01*
X201443Y45879D02*
X205171Y45879D01*
X207056Y46811D02*
X207056Y50540D01*
X207988Y51472D01*
X209852Y51472D01*
X210784Y50540D01*
X210784Y46811D01*
X209852Y45879D01*
X207988Y45879D01*
X207056Y46811D01*
X210784Y50540D01*
X212669Y51472D02*
X212669Y45879D01*
X212669Y47743D02*
X216397Y51472D01*
X213601Y48675D02*
X216397Y45879D01*
D12*
X253650Y153410D02*
X266350Y153410D01*
X253650Y153410D02*
X253510Y153412D01*
X253370Y153418D01*
X253230Y153427D01*
X253091Y153441D01*
X252952Y153458D01*
X252814Y153479D01*
X252676Y153504D01*
X252539Y153533D01*
X252403Y153565D01*
X252268Y153602D01*
X252134Y153642D01*
X252001Y153685D01*
X251869Y153733D01*
X251738Y153783D01*
X251609Y153838D01*
X251482Y153896D01*
X251356Y153957D01*
X251232Y154022D01*
X251110Y154091D01*
X250990Y154162D01*
X250872Y154237D01*
X250755Y154315D01*
X250641Y154397D01*
X250530Y154481D01*
X250421Y154569D01*
X250314Y154659D01*
X250209Y154753D01*
X250108Y154849D01*
X250009Y154948D01*
X249913Y155049D01*
X249819Y155154D01*
X249729Y155261D01*
X249641Y155370D01*
X249557Y155481D01*
X249475Y155595D01*
X249397Y155712D01*
X249322Y155830D01*
X249251Y155950D01*
X249182Y156072D01*
X249117Y156196D01*
X249056Y156322D01*
X248998Y156449D01*
X248943Y156578D01*
X248893Y156709D01*
X248845Y156841D01*
X248802Y156974D01*
X248762Y157108D01*
X248725Y157243D01*
X248693Y157379D01*
X248664Y157516D01*
X248639Y157654D01*
X248618Y157792D01*
X248601Y157931D01*
X248587Y158070D01*
X248578Y158210D01*
X248572Y158350D01*
X248570Y158490D01*
X266350Y153410D02*
X266490Y153412D01*
X266630Y153418D01*
X266770Y153427D01*
X266909Y153441D01*
X267048Y153458D01*
X267186Y153479D01*
X267324Y153504D01*
X267461Y153533D01*
X267597Y153565D01*
X267732Y153602D01*
X267866Y153642D01*
X267999Y153685D01*
X268131Y153733D01*
X268262Y153783D01*
X268391Y153838D01*
X268518Y153896D01*
X268644Y153957D01*
X268768Y154022D01*
X268890Y154091D01*
X269010Y154162D01*
X269128Y154237D01*
X269245Y154315D01*
X269359Y154397D01*
X269470Y154481D01*
X269579Y154569D01*
X269686Y154659D01*
X269791Y154753D01*
X269892Y154849D01*
X269991Y154948D01*
X270087Y155049D01*
X270181Y155154D01*
X270271Y155261D01*
X270359Y155370D01*
X270443Y155481D01*
X270525Y155595D01*
X270603Y155712D01*
X270678Y155830D01*
X270749Y155950D01*
X270818Y156072D01*
X270883Y156196D01*
X270944Y156322D01*
X271002Y156449D01*
X271057Y156578D01*
X271107Y156709D01*
X271155Y156841D01*
X271198Y156974D01*
X271238Y157108D01*
X271275Y157243D01*
X271307Y157379D01*
X271336Y157516D01*
X271361Y157654D01*
X271382Y157792D01*
X271399Y157931D01*
X271413Y158070D01*
X271422Y158210D01*
X271428Y158350D01*
X271430Y158490D01*
X248570Y158490D02*
X248570Y191510D01*
X253650Y196590D02*
X266350Y196590D01*
X271430Y191510D02*
X271430Y158490D01*
X248570Y191510D02*
X248572Y191650D01*
X248578Y191790D01*
X248587Y191930D01*
X248601Y192069D01*
X248618Y192208D01*
X248639Y192346D01*
X248664Y192484D01*
X248693Y192621D01*
X248725Y192757D01*
X248762Y192892D01*
X248802Y193026D01*
X248845Y193159D01*
X248893Y193291D01*
X248943Y193422D01*
X248998Y193551D01*
X249056Y193678D01*
X249117Y193804D01*
X249182Y193928D01*
X249251Y194050D01*
X249322Y194170D01*
X249397Y194288D01*
X249475Y194405D01*
X249557Y194519D01*
X249641Y194630D01*
X249729Y194739D01*
X249819Y194846D01*
X249913Y194951D01*
X250009Y195052D01*
X250108Y195151D01*
X250209Y195247D01*
X250314Y195341D01*
X250421Y195431D01*
X250530Y195519D01*
X250641Y195603D01*
X250755Y195685D01*
X250872Y195763D01*
X250990Y195838D01*
X251110Y195909D01*
X251232Y195978D01*
X251356Y196043D01*
X251482Y196104D01*
X251609Y196162D01*
X251738Y196217D01*
X251869Y196267D01*
X252001Y196315D01*
X252134Y196358D01*
X252268Y196398D01*
X252403Y196435D01*
X252539Y196467D01*
X252676Y196496D01*
X252814Y196521D01*
X252952Y196542D01*
X253091Y196559D01*
X253230Y196573D01*
X253370Y196582D01*
X253510Y196588D01*
X253650Y196590D01*
X266350Y196590D02*
X266490Y196588D01*
X266630Y196582D01*
X266770Y196573D01*
X266909Y196559D01*
X267048Y196542D01*
X267186Y196521D01*
X267324Y196496D01*
X267461Y196467D01*
X267597Y196435D01*
X267732Y196398D01*
X267866Y196358D01*
X267999Y196315D01*
X268131Y196267D01*
X268262Y196217D01*
X268391Y196162D01*
X268518Y196104D01*
X268644Y196043D01*
X268768Y195978D01*
X268890Y195909D01*
X269010Y195838D01*
X269128Y195763D01*
X269245Y195685D01*
X269359Y195603D01*
X269470Y195519D01*
X269579Y195431D01*
X269686Y195341D01*
X269791Y195247D01*
X269892Y195151D01*
X269991Y195052D01*
X270087Y194951D01*
X270181Y194846D01*
X270271Y194739D01*
X270359Y194630D01*
X270443Y194519D01*
X270525Y194405D01*
X270603Y194288D01*
X270678Y194170D01*
X270749Y194050D01*
X270818Y193928D01*
X270883Y193804D01*
X270944Y193678D01*
X271002Y193551D01*
X271057Y193422D01*
X271107Y193291D01*
X271155Y193159D01*
X271198Y193026D01*
X271238Y192892D01*
X271275Y192757D01*
X271307Y192621D01*
X271336Y192484D01*
X271361Y192346D01*
X271382Y192208D01*
X271399Y192069D01*
X271413Y191930D01*
X271422Y191790D01*
X271428Y191650D01*
X271430Y191510D01*
D15*
X267620Y171952D02*
X252380Y171952D01*
X252380Y178302D02*
X267620Y178302D01*
D11*
X245484Y162474D02*
X241755Y162474D01*
X240823Y163406D01*
X240823Y165270D01*
X241755Y166203D01*
X245484Y166203D01*
X246416Y165270D01*
X246416Y163406D01*
X245484Y162474D01*
X241755Y166203D01*
X245484Y168087D02*
X246416Y168087D01*
X245484Y168087D02*
X245484Y169019D01*
X246416Y169019D01*
X246416Y168087D01*
X242688Y170894D02*
X240823Y172758D01*
X246416Y172758D01*
X246416Y170894D02*
X246416Y174622D01*
X245484Y176507D02*
X242688Y176507D01*
X245484Y176507D02*
X246416Y177439D01*
X246416Y180235D01*
X242688Y180235D01*
X240823Y182120D02*
X246416Y182120D01*
X240823Y182120D02*
X240823Y185848D01*
X243620Y183984D02*
X243620Y182120D01*
D12*
X284200Y199600D02*
X284200Y218650D01*
X284358Y218652D01*
X284517Y218658D01*
X284675Y218668D01*
X284832Y218682D01*
X284990Y218699D01*
X285146Y218721D01*
X285303Y218746D01*
X285458Y218776D01*
X285613Y218809D01*
X285767Y218846D01*
X285920Y218887D01*
X286072Y218932D01*
X286222Y218981D01*
X286372Y219033D01*
X286520Y219089D01*
X286667Y219149D01*
X286812Y219212D01*
X286955Y219279D01*
X287097Y219349D01*
X287237Y219423D01*
X287375Y219501D01*
X287511Y219582D01*
X287645Y219666D01*
X287777Y219753D01*
X287907Y219844D01*
X288034Y219938D01*
X288159Y220035D01*
X288282Y220136D01*
X288402Y220239D01*
X288519Y220345D01*
X288634Y220454D01*
X288746Y220566D01*
X288855Y220681D01*
X288961Y220798D01*
X289064Y220918D01*
X289165Y221041D01*
X289262Y221166D01*
X289356Y221293D01*
X289447Y221423D01*
X289534Y221555D01*
X289618Y221689D01*
X289699Y221825D01*
X289777Y221963D01*
X289851Y222103D01*
X289921Y222245D01*
X289988Y222388D01*
X290051Y222533D01*
X290111Y222680D01*
X290167Y222828D01*
X290219Y222978D01*
X290268Y223128D01*
X290313Y223280D01*
X290354Y223433D01*
X290391Y223587D01*
X290424Y223742D01*
X290454Y223897D01*
X290479Y224054D01*
X290501Y224210D01*
X290518Y224368D01*
X290532Y224525D01*
X290542Y224683D01*
X290548Y224842D01*
X290550Y225000D01*
X290548Y225158D01*
X290542Y225317D01*
X290532Y225475D01*
X290518Y225632D01*
X290501Y225790D01*
X290479Y225946D01*
X290454Y226103D01*
X290424Y226258D01*
X290391Y226413D01*
X290354Y226567D01*
X290313Y226720D01*
X290268Y226872D01*
X290219Y227022D01*
X290167Y227172D01*
X290111Y227320D01*
X290051Y227467D01*
X289988Y227612D01*
X289921Y227755D01*
X289851Y227897D01*
X289777Y228037D01*
X289699Y228175D01*
X289618Y228311D01*
X289534Y228445D01*
X289447Y228577D01*
X289356Y228707D01*
X289262Y228834D01*
X289165Y228959D01*
X289064Y229082D01*
X288961Y229202D01*
X288855Y229319D01*
X288746Y229434D01*
X288634Y229546D01*
X288519Y229655D01*
X288402Y229761D01*
X288282Y229864D01*
X288159Y229965D01*
X288034Y230062D01*
X287907Y230156D01*
X287777Y230247D01*
X287645Y230334D01*
X287511Y230418D01*
X287375Y230499D01*
X287237Y230577D01*
X287097Y230651D01*
X286955Y230721D01*
X286812Y230788D01*
X286667Y230851D01*
X286520Y230911D01*
X286372Y230967D01*
X286222Y231019D01*
X286072Y231068D01*
X285920Y231113D01*
X285767Y231154D01*
X285613Y231191D01*
X285458Y231224D01*
X285303Y231254D01*
X285146Y231279D01*
X284990Y231301D01*
X284832Y231318D01*
X284675Y231332D01*
X284517Y231342D01*
X284358Y231348D01*
X284200Y231350D01*
X284200Y199600D02*
X385800Y199600D01*
X385800Y250400D01*
X284200Y250400D01*
X284200Y231350D01*
D11*
X313036Y277655D02*
X313036Y281383D01*
X314900Y283248D01*
X316764Y281383D01*
X316764Y277655D01*
X316764Y280451D02*
X313036Y280451D01*
X319581Y282316D02*
X319581Y278587D01*
X320513Y277655D01*
X320513Y281383D02*
X318649Y281383D01*
X323323Y282316D02*
X323323Y278587D01*
X324255Y277655D01*
X324255Y281383D02*
X322391Y281383D01*
X326133Y281383D02*
X327065Y281383D01*
X327065Y277655D01*
X326133Y277655D02*
X327997Y277655D01*
X327065Y283248D02*
X327065Y284180D01*
X329875Y281383D02*
X329875Y277655D01*
X329875Y281383D02*
X332672Y281383D01*
X333604Y280451D01*
X333604Y277655D01*
X335488Y278587D02*
X335488Y281383D01*
X335488Y278587D02*
X336420Y277655D01*
X339217Y277655D01*
X339217Y276723D02*
X339217Y281383D01*
X339217Y276723D02*
X338285Y275791D01*
X337353Y275791D01*
X341101Y282316D02*
X342034Y283248D01*
X343898Y283248D01*
X344830Y282316D01*
X344830Y281383D01*
X343898Y280451D01*
X344830Y279519D01*
X344830Y278587D01*
X343898Y277655D01*
X342034Y277655D01*
X341101Y278587D01*
X341101Y279519D01*
X342034Y280451D01*
X341101Y281383D01*
X341101Y282316D01*
X342034Y280451D02*
X343898Y280451D01*
X346714Y283248D02*
X350443Y283248D01*
X346714Y283248D02*
X346714Y280451D01*
X348579Y281383D01*
X349511Y281383D01*
X350443Y280451D01*
X350443Y278587D01*
X349511Y277655D01*
X347647Y277655D01*
X346714Y278587D01*
D14*
X32592Y138059D02*
X32550Y138016D01*
X32550Y137932D01*
X32592Y137889D01*
X32635Y137889D01*
X32677Y137932D01*
X32677Y138016D01*
X32719Y138059D01*
X32762Y138059D01*
X32804Y138016D01*
X32804Y137932D01*
X32762Y137889D01*
X32550Y138123D02*
X32550Y138293D01*
X32550Y138123D02*
X32804Y138123D01*
X32804Y138293D01*
X32677Y138208D02*
X32677Y138123D01*
X32804Y138357D02*
X32550Y138357D01*
X32550Y138484D01*
X32592Y138526D01*
X32677Y138526D01*
X32719Y138484D01*
X32719Y138357D01*
X32719Y138442D02*
X32804Y138526D01*
X32804Y138591D02*
X32804Y138676D01*
X32804Y138633D02*
X32550Y138633D01*
X32550Y138591D02*
X32550Y138676D01*
X32635Y138747D02*
X32804Y138747D01*
X32635Y138747D02*
X32550Y138831D01*
X32635Y138916D01*
X32804Y138916D01*
X32677Y138916D02*
X32677Y138747D01*
X32550Y138981D02*
X32804Y138981D01*
X32804Y139150D01*
X32550Y139491D02*
X32550Y139575D01*
X32550Y139491D02*
X32592Y139448D01*
X32762Y139448D01*
X32804Y139491D01*
X32804Y139575D01*
X32762Y139618D01*
X32592Y139618D01*
X32550Y139575D01*
X32550Y139682D02*
X32762Y139682D01*
X32804Y139725D01*
X32804Y139809D01*
X32762Y139852D01*
X32550Y139852D01*
X32550Y140001D02*
X32804Y140001D01*
X32550Y139916D02*
X32550Y140086D01*
M02*
