G04 EAGLE Gerber RS-274X export*
G75*
%MOMM*%
%FSLAX34Y34*%
%LPD*%
%INSilkscreen Bottom*%
%IPPOS*%
%AMOC8*
5,1,8,0,0,1.08239X$1,22.5*%
G01*
%ADD10C,0.101600*%


D10*
X302301Y169604D02*
X308148Y169604D01*
X310097Y167655D01*
X310097Y163757D01*
X308148Y161808D01*
X302301Y161808D01*
X298403Y161808D02*
X298403Y173502D01*
X296454Y169604D02*
X298403Y167655D01*
X296454Y169604D02*
X292556Y169604D01*
X290607Y167655D01*
X290607Y161808D01*
X284760Y161808D02*
X280862Y161808D01*
X284760Y161808D02*
X286709Y163757D01*
X286709Y167655D01*
X284760Y169604D01*
X280862Y169604D01*
X278913Y167655D01*
X278913Y165706D01*
X286709Y165706D01*
X273066Y169604D02*
X267219Y169604D01*
X273066Y169604D02*
X275015Y167655D01*
X275015Y163757D01*
X273066Y161808D01*
X267219Y161808D01*
X263321Y161808D02*
X263321Y173502D01*
X263321Y165706D02*
X257474Y161808D01*
X263321Y165706D02*
X257474Y169604D01*
X253576Y167655D02*
X245780Y167655D01*
X241882Y173502D02*
X241882Y161808D01*
X236035Y161808D01*
X234086Y163757D01*
X234086Y167655D01*
X236035Y169604D01*
X241882Y169604D01*
X228239Y169604D02*
X224341Y169604D01*
X222392Y167655D01*
X222392Y161808D01*
X228239Y161808D01*
X230188Y163757D01*
X228239Y165706D01*
X222392Y165706D01*
X216545Y163757D02*
X216545Y171553D01*
X216545Y163757D02*
X214596Y161808D01*
X214596Y169604D02*
X218494Y169604D01*
X208749Y171553D02*
X208749Y163757D01*
X206800Y161808D01*
X206800Y169604D02*
X210698Y169604D01*
X200953Y161808D02*
X197055Y161808D01*
X200953Y161808D02*
X202902Y163757D01*
X202902Y167655D01*
X200953Y169604D01*
X197055Y169604D01*
X195106Y167655D01*
X195106Y165706D01*
X202902Y165706D01*
X191208Y161808D02*
X191208Y169604D01*
X191208Y165706D02*
X187310Y169604D01*
X185361Y169604D01*
X181463Y169604D02*
X181463Y163757D01*
X179514Y161808D01*
X173667Y161808D01*
X173667Y159859D02*
X173667Y169604D01*
X173667Y159859D02*
X175616Y157910D01*
X177565Y157910D01*
X169769Y167655D02*
X161973Y167655D01*
X158075Y169604D02*
X158075Y161808D01*
X158075Y169604D02*
X156126Y169604D01*
X154177Y167655D01*
X154177Y161808D01*
X154177Y167655D02*
X152228Y169604D01*
X150279Y167655D01*
X150279Y161808D01*
X144432Y161808D02*
X140534Y161808D01*
X138585Y163757D01*
X138585Y167655D01*
X140534Y169604D01*
X144432Y169604D01*
X146381Y167655D01*
X146381Y163757D01*
X144432Y161808D01*
X126891Y161808D02*
X126891Y173502D01*
X126891Y161808D02*
X132738Y161808D01*
X134687Y163757D01*
X134687Y167655D01*
X132738Y169604D01*
X126891Y169604D01*
X122993Y169604D02*
X122993Y163757D01*
X121044Y161808D01*
X115197Y161808D01*
X115197Y169604D01*
X111299Y173502D02*
X109350Y173502D01*
X109350Y161808D01*
X111299Y161808D02*
X107401Y161808D01*
X101555Y161808D02*
X97657Y161808D01*
X101555Y161808D02*
X103503Y163757D01*
X103503Y167655D01*
X101555Y169604D01*
X97657Y169604D01*
X95708Y167655D01*
X95708Y165706D01*
X103503Y165706D01*
X80116Y169604D02*
X76218Y161808D01*
X72320Y169604D01*
X68422Y169604D02*
X64524Y173502D01*
X64524Y161808D01*
X68422Y161808D02*
X60626Y161808D01*
X56728Y161808D02*
X56728Y163757D01*
X54779Y163757D01*
X54779Y161808D01*
X56728Y161808D01*
X50881Y163757D02*
X50881Y171553D01*
X48932Y173502D01*
X45034Y173502D01*
X43085Y171553D01*
X43085Y163757D01*
X45034Y161808D01*
X48932Y161808D01*
X50881Y163757D01*
X43085Y171553D01*
X39187Y171553D02*
X39187Y163757D01*
X39187Y171553D02*
X37238Y173502D01*
X33340Y173502D01*
X31391Y171553D01*
X31391Y163757D01*
X33340Y161808D01*
X37238Y161808D01*
X39187Y163757D01*
X31391Y171553D01*
M02*
