M48
;GenerationSoftware,Autodesk,EAGLE,9.5.2*%
;CreationDate,2023-11-19T11:18:47Z*%
FMAT,2
ICI,OFF
METRIC,TZ,000.000
T4C0.610
T3C0.813
T2C1.321
T1C1.500
%
G90
M71
T1
X44500Y20000
X3000Y27000
X3000Y3000
T2
X4320Y19940
X45500Y25770
X4320Y13280
X50540Y25770
X29220Y11280
X42960Y25770
X29220Y3660
X29220Y8740
X4320Y10660
X4320Y22480
X48040Y25770
T3
X22040Y14190
X27516Y14043
X25810Y9500
X18190Y9500
X22810Y26000
X15190Y26000
X22040Y21810
X19500Y21810
X19500Y14190
X16960Y21810
X16960Y14190
X50431Y10943
X50431Y3323
X33921Y10943
X33921Y3323
X13310Y26000
X5690Y26000
X13540Y21810
X11000Y21810
X11000Y14190
X13540Y14190
X8460Y21810
X8460Y14190
X40500Y25810
X40500Y18190
X37690Y14500
X45310Y14500
X26000Y25270
X26000Y22730
X25810Y6500
X7190Y3500
X14810Y3500
X25810Y3500
X18190Y3500
X26000Y16230
X26000Y18770
X29690Y18690
X32230Y18690
X18190Y6500
X37310Y18690
X37310Y26310
X34770Y26310
X32230Y26310
X29690Y26310
X35136Y14043
X34770Y18690
T4
X23500Y23500
X49450Y15360
X49450Y17900
X39500Y14500
X49450Y20440
X14040Y9500
X11500Y9500
X8960Y9500
X45000Y23000
X48500Y10000
X42500Y16000
X33500Y20500
M30