G04 EAGLE Gerber RS-274X export*
G75*
%MOMM*%
%FSLAX34Y34*%
%LPD*%
%INBottom Copper*%
%IPPOS*%
%AMOC8*
5,1,8,0,0,1.08239X$1,22.5*%
G01*
%ADD10P,1.429621X8X202.500000*%
%ADD11C,1.320800*%
%ADD12C,1.981200*%
%ADD13P,2.749271X8X292.500000*%
%ADD14P,1.429621X8X292.500000*%
%ADD15P,1.429621X8X22.500000*%
%ADD16C,1.117600*%
%ADD17C,1.270000*%
%ADD18C,0.812800*%
%ADD19C,0.508000*%
%ADD20C,0.609600*%
%ADD21C,1.016000*%
%ADD22C,1.016000*%


D10*
X351361Y140430D03*
X275161Y140430D03*
X258100Y95000D03*
X181900Y95000D03*
X232100Y260000D03*
X155900Y260000D03*
D11*
X220400Y224704D02*
X220400Y211496D01*
X195000Y211496D02*
X195000Y224704D01*
X195000Y148504D02*
X195000Y135296D01*
X220400Y135296D02*
X220400Y148504D01*
X169600Y211496D02*
X169600Y224704D01*
X169600Y148504D02*
X169600Y135296D01*
D12*
X53106Y106600D02*
X33294Y106600D01*
X33294Y224800D02*
X53106Y224800D01*
D13*
X504314Y109427D03*
X504314Y33227D03*
X339214Y109427D03*
X339214Y33227D03*
D12*
X302106Y36600D02*
X282294Y36600D01*
X282294Y87400D02*
X302106Y87400D01*
D10*
X133100Y260000D03*
X56900Y260000D03*
D11*
X135400Y224704D02*
X135400Y211496D01*
X110000Y211496D02*
X110000Y224704D01*
X110000Y148504D02*
X110000Y135296D01*
X135400Y135296D02*
X135400Y148504D01*
X84600Y211496D02*
X84600Y224704D01*
X84600Y148504D02*
X84600Y135296D01*
D12*
X53106Y199400D02*
X33294Y199400D01*
D14*
X405000Y258100D03*
X405000Y181900D03*
D15*
X376900Y145000D03*
X453100Y145000D03*
D16*
X494500Y153600D03*
X494500Y179000D03*
X494500Y204400D03*
X140400Y95000D03*
X115000Y95000D03*
X89600Y95000D03*
D12*
X429600Y247794D02*
X429600Y267606D01*
X302106Y112800D02*
X282294Y112800D01*
D14*
X260000Y252700D03*
X260000Y227300D03*
D10*
X258100Y65000D03*
X181900Y65000D03*
D15*
X71900Y35000D03*
X148100Y35000D03*
D11*
X296900Y180296D02*
X296900Y193504D01*
X322300Y193504D02*
X322300Y180296D01*
X347700Y180296D02*
X347700Y193504D01*
X373100Y193504D02*
X373100Y180296D01*
X373100Y256496D02*
X373100Y269704D01*
X347700Y269704D02*
X347700Y256496D01*
X322300Y256496D02*
X322300Y269704D01*
X296900Y269704D02*
X296900Y256496D01*
D12*
X53106Y132800D02*
X33294Y132800D01*
X455000Y247794D02*
X455000Y267606D01*
X480400Y267606D02*
X480400Y247794D01*
X505400Y247794D02*
X505400Y267606D01*
D17*
X258100Y110000D02*
X258100Y95000D01*
X258100Y110000D02*
X290000Y110000D01*
X292200Y112800D01*
D18*
X145000Y35000D02*
X113862Y66138D01*
X49862Y66138D01*
X43200Y72800D01*
X43200Y106600D01*
D19*
X145000Y35000D02*
X148100Y35000D01*
D17*
X56250Y226250D02*
X90000Y260000D01*
X133100Y260000D01*
X56250Y226250D02*
X43200Y224800D01*
X405000Y181900D02*
X408000Y178900D01*
X442841Y178900D01*
X504314Y117427D01*
D18*
X504314Y109427D01*
D17*
X405000Y186900D02*
X373100Y186900D01*
X405000Y186900D02*
X405000Y181900D01*
D18*
X373268Y187068D02*
X373100Y186900D01*
D17*
X373268Y187068D02*
X373268Y211732D01*
X357700Y227300D01*
X260000Y227300D01*
D18*
X260000Y230100D02*
X231100Y259000D01*
D17*
X260000Y230100D02*
X260000Y227300D01*
D20*
X231100Y259000D02*
X232100Y260000D01*
D18*
X183386Y259000D02*
X152000Y227614D01*
X152000Y179490D01*
X84600Y179490D01*
X84600Y141900D01*
X183386Y259000D02*
X231100Y259000D01*
X84600Y135900D02*
X115000Y105500D01*
D20*
X84600Y135900D02*
X84600Y141900D01*
D18*
X115000Y105500D02*
X115000Y95000D01*
D19*
X120726Y195401D02*
X134211Y208886D01*
X120726Y195401D02*
X47199Y195401D01*
X43200Y199400D01*
X134211Y208886D02*
X135400Y218100D01*
D21*
X260000Y255000D02*
X265000Y260000D01*
X295000Y260000D01*
D19*
X260000Y255000D02*
X260000Y252700D01*
X295000Y260000D02*
X296900Y263100D01*
D17*
X258100Y65000D02*
X239000Y65000D01*
D20*
X239000Y229000D01*
D17*
X470000Y65000D02*
X500000Y35000D01*
X470000Y65000D02*
X258100Y65000D01*
D19*
X500000Y35000D02*
X504314Y33227D01*
D22*
X239000Y229000D03*
D19*
X447000Y122000D02*
X485000Y84000D01*
X447000Y138900D02*
X453100Y145000D01*
X447000Y138900D02*
X447000Y122000D01*
D22*
X485000Y84000D03*
D19*
X163794Y115000D02*
X133591Y115000D01*
X296778Y186778D02*
X296900Y186900D01*
X505000Y226000D02*
X505000Y255000D01*
X505000Y226000D02*
X458000Y226000D01*
X395000Y138750D02*
X383872Y127622D01*
X395000Y138750D02*
X395000Y145000D01*
X383872Y127622D02*
X321757Y127622D01*
X297178Y137822D02*
X297178Y186778D01*
X297178Y137822D02*
X300000Y135000D01*
X314379Y135000D01*
X321757Y127622D01*
X297178Y186778D02*
X296778Y186778D01*
X505000Y255000D02*
X505400Y257700D01*
D22*
X458000Y226000D03*
X395000Y145000D03*
D17*
X317186Y87400D02*
X292200Y87400D01*
X317186Y87400D02*
X339214Y109427D01*
X405000Y260000D02*
X425000Y260000D01*
X405000Y260000D02*
X391200Y260000D01*
D18*
X388100Y263100D01*
D17*
X427300Y257700D02*
X429600Y257700D01*
D18*
X427300Y257700D02*
X425000Y260000D01*
D17*
X388100Y263100D02*
X373100Y263100D01*
D19*
X405000Y260000D02*
X405000Y258100D01*
X382000Y228000D02*
X350000Y260000D01*
X382000Y228000D02*
X435000Y228000D01*
X455000Y248000D01*
X455000Y257700D01*
X350000Y260000D02*
X347700Y263100D01*
X335000Y205000D02*
X335000Y162000D01*
X431000Y162000D01*
D22*
X335000Y205000D03*
X431000Y162000D03*
D19*
X130000Y165000D02*
X110000Y145000D01*
X130000Y165000D02*
X220000Y165000D01*
X250000Y181000D02*
X278000Y209000D01*
X250000Y181000D02*
X250000Y165000D01*
X331000Y209000D02*
X335000Y205000D01*
X331000Y209000D02*
X278000Y209000D01*
X110000Y145000D02*
X110000Y141900D01*
D22*
X220000Y165000D03*
X250000Y165000D03*
M02*
