G04 EAGLE Gerber RS-274X export*
G75*
%MOMM*%
%FSLAX34Y34*%
%LPD*%
%IN*%
%IPPOS*%
%AMOC8*
5,1,8,0,0,1.08239X$1,22.5*%
G01*
%ADD10C,0.254000*%


D10*
X12000Y10000D02*
X528000Y10000D01*
X528000Y290000D01*
X12000Y290000D01*
X12000Y10000D01*
X452500Y203632D02*
X452428Y202898D01*
X452284Y202175D01*
X452070Y201470D01*
X451788Y200789D01*
X451441Y200140D01*
X451031Y199527D01*
X450564Y198957D01*
X450043Y198436D01*
X449473Y197969D01*
X448860Y197559D01*
X448211Y197212D01*
X447530Y196930D01*
X446825Y196716D01*
X446102Y196572D01*
X445368Y196500D01*
X444632Y196500D01*
X443898Y196572D01*
X443175Y196716D01*
X442470Y196930D01*
X441789Y197212D01*
X441140Y197559D01*
X440527Y197969D01*
X439957Y198436D01*
X439436Y198957D01*
X438969Y199527D01*
X438559Y200140D01*
X438212Y200789D01*
X437930Y201470D01*
X437716Y202175D01*
X437572Y202898D01*
X437500Y203632D01*
X437500Y204368D01*
X437572Y205102D01*
X437716Y205825D01*
X437930Y206530D01*
X438212Y207211D01*
X438559Y207860D01*
X438969Y208473D01*
X439436Y209043D01*
X439957Y209564D01*
X440527Y210031D01*
X441140Y210441D01*
X441789Y210788D01*
X442470Y211070D01*
X443175Y211284D01*
X443898Y211428D01*
X444632Y211500D01*
X445368Y211500D01*
X446102Y211428D01*
X446825Y211284D01*
X447530Y211070D01*
X448211Y210788D01*
X448860Y210441D01*
X449473Y210031D01*
X450043Y209564D01*
X450564Y209043D01*
X451031Y208473D01*
X451441Y207860D01*
X451788Y207211D01*
X452070Y206530D01*
X452284Y205825D01*
X452428Y205102D01*
X452500Y204368D01*
X452500Y203632D01*
X37500Y269632D02*
X37428Y268898D01*
X37284Y268175D01*
X37070Y267470D01*
X36788Y266789D01*
X36441Y266140D01*
X36031Y265527D01*
X35564Y264957D01*
X35043Y264436D01*
X34473Y263969D01*
X33860Y263559D01*
X33211Y263212D01*
X32530Y262930D01*
X31825Y262716D01*
X31102Y262572D01*
X30368Y262500D01*
X29632Y262500D01*
X28898Y262572D01*
X28175Y262716D01*
X27470Y262930D01*
X26789Y263212D01*
X26140Y263559D01*
X25527Y263969D01*
X24957Y264436D01*
X24436Y264957D01*
X23969Y265527D01*
X23559Y266140D01*
X23212Y266789D01*
X22930Y267470D01*
X22716Y268175D01*
X22572Y268898D01*
X22500Y269632D01*
X22500Y270368D01*
X22572Y271102D01*
X22716Y271825D01*
X22930Y272530D01*
X23212Y273211D01*
X23559Y273860D01*
X23969Y274473D01*
X24436Y275043D01*
X24957Y275564D01*
X25527Y276031D01*
X26140Y276441D01*
X26789Y276788D01*
X27470Y277070D01*
X28175Y277284D01*
X28898Y277428D01*
X29632Y277500D01*
X30368Y277500D01*
X31102Y277428D01*
X31825Y277284D01*
X32530Y277070D01*
X33211Y276788D01*
X33860Y276441D01*
X34473Y276031D01*
X35043Y275564D01*
X35564Y275043D01*
X36031Y274473D01*
X36441Y273860D01*
X36788Y273211D01*
X37070Y272530D01*
X37284Y271825D01*
X37428Y271102D01*
X37500Y270368D01*
X37500Y269632D01*
X37500Y29632D02*
X37428Y28898D01*
X37284Y28175D01*
X37070Y27470D01*
X36788Y26789D01*
X36441Y26140D01*
X36031Y25527D01*
X35564Y24957D01*
X35043Y24436D01*
X34473Y23969D01*
X33860Y23559D01*
X33211Y23212D01*
X32530Y22930D01*
X31825Y22716D01*
X31102Y22572D01*
X30368Y22500D01*
X29632Y22500D01*
X28898Y22572D01*
X28175Y22716D01*
X27470Y22930D01*
X26789Y23212D01*
X26140Y23559D01*
X25527Y23969D01*
X24957Y24436D01*
X24436Y24957D01*
X23969Y25527D01*
X23559Y26140D01*
X23212Y26789D01*
X22930Y27470D01*
X22716Y28175D01*
X22572Y28898D01*
X22500Y29632D01*
X22500Y30368D01*
X22572Y31102D01*
X22716Y31825D01*
X22930Y32530D01*
X23212Y33211D01*
X23559Y33860D01*
X23969Y34473D01*
X24436Y35043D01*
X24957Y35564D01*
X25527Y36031D01*
X26140Y36441D01*
X26789Y36788D01*
X27470Y37070D01*
X28175Y37284D01*
X28898Y37428D01*
X29632Y37500D01*
X30368Y37500D01*
X31102Y37428D01*
X31825Y37284D01*
X32530Y37070D01*
X33211Y36788D01*
X33860Y36441D01*
X34473Y36031D01*
X35043Y35564D01*
X35564Y35043D01*
X36031Y34473D01*
X36441Y33860D01*
X36788Y33211D01*
X37070Y32530D01*
X37284Y31825D01*
X37428Y31102D01*
X37500Y30368D01*
X37500Y29632D01*
M02*
