G04 EAGLE Gerber RS-274X export*
G75*
%MOMM*%
%FSLAX34Y34*%
%LPD*%
%INSilkscreen Bottom*%
%IPPOS*%
%AMOC8*
5,1,8,0,0,1.08239X$1,22.5*%
G01*
%ADD10C,0.101600*%


D10*
X434301Y23604D02*
X440148Y23604D01*
X442097Y21655D01*
X442097Y17757D01*
X440148Y15808D01*
X434301Y15808D01*
X430403Y15808D02*
X430403Y27502D01*
X428454Y23604D02*
X430403Y21655D01*
X428454Y23604D02*
X424556Y23604D01*
X422607Y21655D01*
X422607Y15808D01*
X416760Y15808D02*
X412862Y15808D01*
X416760Y15808D02*
X418709Y17757D01*
X418709Y21655D01*
X416760Y23604D01*
X412862Y23604D01*
X410913Y21655D01*
X410913Y19706D01*
X418709Y19706D01*
X405066Y23604D02*
X399219Y23604D01*
X405066Y23604D02*
X407015Y21655D01*
X407015Y17757D01*
X405066Y15808D01*
X399219Y15808D01*
X395321Y15808D02*
X395321Y27502D01*
X395321Y19706D02*
X389474Y15808D01*
X395321Y19706D02*
X389474Y23604D01*
X385576Y21655D02*
X377780Y21655D01*
X373882Y27502D02*
X373882Y15808D01*
X368035Y15808D01*
X366086Y17757D01*
X366086Y21655D01*
X368035Y23604D01*
X373882Y23604D01*
X360239Y23604D02*
X356341Y23604D01*
X354392Y21655D01*
X354392Y15808D01*
X360239Y15808D01*
X362188Y17757D01*
X360239Y19706D01*
X354392Y19706D01*
X348545Y17757D02*
X348545Y25553D01*
X348545Y17757D02*
X346596Y15808D01*
X346596Y23604D02*
X350494Y23604D01*
X340749Y25553D02*
X340749Y17757D01*
X338800Y15808D01*
X338800Y23604D02*
X342698Y23604D01*
X332953Y15808D02*
X329055Y15808D01*
X332953Y15808D02*
X334902Y17757D01*
X334902Y21655D01*
X332953Y23604D01*
X329055Y23604D01*
X327106Y21655D01*
X327106Y19706D01*
X334902Y19706D01*
X323208Y15808D02*
X323208Y23604D01*
X323208Y19706D02*
X319310Y23604D01*
X317361Y23604D01*
X313463Y23604D02*
X313463Y17757D01*
X311514Y15808D01*
X305667Y15808D01*
X305667Y13859D02*
X305667Y23604D01*
X305667Y13859D02*
X307616Y11910D01*
X309565Y11910D01*
X301769Y21655D02*
X293973Y21655D01*
X290075Y23604D02*
X290075Y15808D01*
X290075Y23604D02*
X288126Y23604D01*
X286177Y21655D01*
X286177Y15808D01*
X286177Y21655D02*
X284228Y23604D01*
X282279Y21655D01*
X282279Y15808D01*
X276432Y15808D02*
X272534Y15808D01*
X270585Y17757D01*
X270585Y21655D01*
X272534Y23604D01*
X276432Y23604D01*
X278381Y21655D01*
X278381Y17757D01*
X276432Y15808D01*
X258891Y15808D02*
X258891Y27502D01*
X258891Y15808D02*
X264738Y15808D01*
X266687Y17757D01*
X266687Y21655D01*
X264738Y23604D01*
X258891Y23604D01*
X254993Y23604D02*
X254993Y17757D01*
X253044Y15808D01*
X247197Y15808D01*
X247197Y23604D01*
X243299Y27502D02*
X241350Y27502D01*
X241350Y15808D01*
X243299Y15808D02*
X239401Y15808D01*
X233555Y15808D02*
X229657Y15808D01*
X233555Y15808D02*
X235503Y17757D01*
X235503Y21655D01*
X233555Y23604D01*
X229657Y23604D01*
X227708Y21655D01*
X227708Y19706D01*
X235503Y19706D01*
X212116Y23604D02*
X208218Y15808D01*
X204320Y23604D01*
X200422Y15808D02*
X192626Y15808D01*
X200422Y15808D02*
X192626Y23604D01*
X192626Y25553D01*
X194575Y27502D01*
X198473Y27502D01*
X200422Y25553D01*
X188728Y17757D02*
X188728Y15808D01*
X188728Y17757D02*
X186779Y17757D01*
X186779Y15808D01*
X188728Y15808D01*
X182881Y17757D02*
X182881Y25553D01*
X180932Y27502D01*
X177034Y27502D01*
X175085Y25553D01*
X175085Y17757D01*
X177034Y15808D01*
X180932Y15808D01*
X182881Y17757D01*
X175085Y25553D01*
X171187Y25553D02*
X171187Y17757D01*
X171187Y25553D02*
X169238Y27502D01*
X165340Y27502D01*
X163391Y25553D01*
X163391Y17757D01*
X165340Y15808D01*
X169238Y15808D01*
X171187Y17757D01*
X163391Y25553D01*
M02*
